<?xml version="1.0" encoding="UTF-8" standalone="no"?>
<!DOCTYPE svg PUBLIC "-//W3C//DTD SVG 1.1//EN"
 "http://www.w3.org/Graphics/SVG/1.1/DTD/svg11.dtd">
<!-- Generated by graphviz version 2.38.0 (20140413.2041)
 -->
<!-- Title: G Pages: 1 -->
<svg width="10672pt" height="557pt"
 viewBox="0.00 0.00 10672.00 556.80" xmlns="http://www.w3.org/2000/svg" xmlns:xlink="http://www.w3.org/1999/xlink">
<g id="graph0" class="graph" transform="scale(1 1) rotate(0) translate(4 552.8)">
<title>G</title>
<polygon fill="white" stroke="none" points="-4,4 -4,-552.8 10668,-552.8 10668,4 -4,4"/>
<g id="clust1" class="cluster"><title>cluster_0</title>
<polygon fill="lightgray" stroke="lightgrey" points="8,-8 8,-538 664,-538 664,-8 8,-8"/>
<text text-anchor="middle" x="336.37" y="-507" font-family="Times,serif" font-size="30.00">C:/dev/Custom&#45;MADE/dedoc&#45;web/public/index.html</text>
</g>
<g id="clust2" class="cluster"><title>cluster_1</title>
<polygon fill="lightgray" stroke="lightgrey" points="672,-438.2 672,-540.8 1255,-540.8 1255,-438.2 672,-438.2"/>
<text text-anchor="middle" x="963.682" y="-509.8" font-family="Times,serif" font-size="30.00">C:/dev/Custom&#45;MADE/dedoc&#45;web/src/App.css</text>
</g>
<g id="clust3" class="cluster"><title>cluster_10</title>
<polygon fill="lightgray" stroke="lightgrey" points="1263,-270.8 1263,-540.8 2359,-540.8 2359,-270.8 1263,-270.8"/>
<text text-anchor="middle" x="1811.27" y="-509.8" font-family="Times,serif" font-size="30.00">C:/dev/Custom&#45;MADE/dedoc&#45;web/src/gui/pages/projects/settings/GeneralInformation.css</text>
</g>
<g id="clust4" class="cluster"><title>cluster_2</title>
<polygon fill="lightgray" stroke="lightgrey" points="2367,-245.6 2367,-540.8 2994,-540.8 2994,-245.6 2367,-245.6"/>
<text text-anchor="middle" x="2666.18" y="-509.8" font-family="Times,serif" font-size="30.00">C:/dev/Custom&#45;MADE/dedoc&#45;web/src/index.css</text>
</g>
<g id="clust5" class="cluster"><title>cluster_3</title>
<polygon fill="lightgray" stroke="lightgrey" points="3002,-270.8 3002,-540.8 3916,-540.8 3916,-270.8 3002,-270.8"/>
<text text-anchor="middle" x="3459.47" y="-509.8" font-family="Times,serif" font-size="30.00">C:/dev/Custom&#45;MADE/dedoc&#45;web/src/gui/shared/dumb/GenericModal.css</text>
</g>
<g id="clust6" class="cluster"><title>cluster_4</title>
<polygon fill="lightgray" stroke="lightgrey" points="3924,-220.4 3924,-540.8 4758,-540.8 4758,-220.4 3924,-220.4"/>
<text text-anchor="middle" x="4341.46" y="-509.8" font-family="Times,serif" font-size="30.00">C:/dev/Custom&#45;MADE/dedoc&#45;web/src/gui/shared/layout/Header.css</text>
</g>
<g id="clust7" class="cluster"><title>cluster_5</title>
<polygon fill="lightgray" stroke="lightgrey" points="4766,-262.4 4766,-540.8 5665,-540.8 5665,-262.4 4766,-262.4"/>
<text text-anchor="middle" x="5215.96" y="-509.8" font-family="Times,serif" font-size="30.00">C:/dev/Custom&#45;MADE/dedoc&#45;web/src/gui/shared/layout/footer/footer.css</text>
</g>
<g id="clust8" class="cluster"><title>cluster_6</title>
<polygon fill="lightgray" stroke="lightgrey" points="5673,-170 5673,-540.8 7664,-540.8 7664,-170 5673,-170"/>
<text text-anchor="middle" x="6112.15" y="-509.8" font-family="Times,serif" font-size="30.00">C:/dev/Custom&#45;MADE/dedoc&#45;web/src/gui/shared/layout/sider/Sider.css</text>
</g>
<g id="clust9" class="cluster"><title>cluster_7</title>
<polygon fill="lightgray" stroke="lightgrey" points="7672,-203.6 7672,-540.8 8503,-540.8 8503,-203.6 7672,-203.6"/>
<text text-anchor="middle" x="8087.85" y="-509.8" font-family="Times,serif" font-size="30.00">C:/dev/Custom&#45;MADE/dedoc&#45;web/src/gui/pages/sign_in/SignIn.css</text>
</g>
<g id="clust10" class="cluster"><title>cluster_8</title>
<polygon fill="lightgray" stroke="lightgrey" points="8511,-270.8 8511,-540.8 9472,-540.8 9472,-270.8 8511,-270.8"/>
<text text-anchor="middle" x="8991.8" y="-509.8" font-family="Times,serif" font-size="30.00">C:/dev/Custom&#45;MADE/dedoc&#45;web/src/gui/pages/projects/M0ProjectsView.css</text>
</g>
<g id="clust11" class="cluster"><title>cluster_9</title>
<polygon fill="lightgray" stroke="lightgrey" points="9480,-262.4 9480,-540.8 10656,-540.8 10656,-262.4 9480,-262.4"/>
<text text-anchor="middle" x="10068.3" y="-509.8" font-family="Times,serif" font-size="30.00">C:/dev/Custom&#45;MADE/dedoc&#45;web/src/gui/pages/projects/edit_gitconfig/GitConnectionView.css</text>
</g>
<!-- 0 -->
<g id="node1" class="node"><title>0</title>
<polygon fill="lightsalmon" stroke="black" points="317.959,-449.5 317.959,-485.5 414.041,-485.5 414.041,-449.5 317.959,-449.5"/>
<text text-anchor="middle" x="366" y="-463.4" font-family="Times,serif" font-size="14.00">«GLOBAL»</text>
</g>
<!-- 40 -->
<g id="node2" class="node"><title>40</title>
<polygon fill="pink" stroke="black" points="327.288,-286.1 327.288,-322.1 404.712,-322.1 404.712,-286.1 327.288,-286.1"/>
<text text-anchor="middle" x="366" y="-300" font-family="Times,serif" font-size="14.00">«ROOT»</text>
</g>
<!-- 0&#45;&gt;40 -->
<g id="edge30" class="edge"><title>0&#45;&gt;40</title>
<path fill="none" stroke="black" d="M366,-437.02C366,-403.409 366,-349.593 366,-322.248"/>
<polygon fill="black" stroke="black" points="366,-437.227 370,-443.227 366,-449.227 362,-443.227 366,-437.227"/>
</g>
<!-- 41 -->
<g id="node3" class="node"><title>41</title>
<polygon fill="pink" stroke="black" points="326.511,-125.5 326.511,-161.5 405.489,-161.5 405.489,-125.5 326.511,-125.5"/>
<text text-anchor="middle" x="366" y="-139.4" font-family="Times,serif" font-size="14.00">«HTML»</text>
</g>
<!-- 40&#45;&gt;41 -->
<g id="edge31" class="edge"><title>40&#45;&gt;41</title>
<path fill="none" stroke="black" d="M366,-273.425C366,-240.52 366,-188.554 366,-161.754"/>
<polygon fill="black" stroke="black" points="366,-273.825 370,-279.825 366,-285.825 362,-279.825 366,-273.825"/>
</g>
<!-- 42 -->
<g id="node4" class="node"><title>42</title>
<polygon fill="pink" stroke="black" points="146.972,-16.5 146.972,-116.5 393.028,-116.5 393.028,-16.5 146.972,-16.5"/>
<text text-anchor="middle" x="270" y="-99.9" font-family="Times,serif" font-size="14.00">«HEAD»</text>
<polyline fill="none" stroke="black" points="146.972,-91.7 393.028,-91.7 "/>
<text text-anchor="start" x="154.972" y="-75.1" font-family="Times,serif" font-size="14.00">+link : link = PUBLICURLfavicon.ico</text>
<text text-anchor="start" x="154.972" y="-58.3" font-family="Times,serif" font-size="14.00">+link : link = PUBLICURLmanifest.json</text>
<text text-anchor="start" x="154.972" y="-41.5" font-family="Times,serif" font-size="14.00">+meta : meta</text>
<text text-anchor="start" x="154.972" y="-24.7" font-family="Times,serif" font-size="14.00">+title : title</text>
</g>
<!-- 41&#45;&gt;42 -->
<g id="edge32" class="edge"><title>41&#45;&gt;42</title>
<path fill="none" stroke="black" d="M334.742,-118.08C334.131,-117.602 333.515,-117.121 332.895,-116.637"/>
<polygon fill="black" stroke="black" points="334.76,-118.094 341.951,-118.635 344.216,-125.481 337.025,-124.94 334.76,-118.094"/>
</g>
<!-- 43 -->
<g id="node5" class="node"><title>43</title>
<polygon fill="pink" stroke="black" points="400.506,-33.3 400.506,-99.7 525.494,-99.7 525.494,-33.3 400.506,-33.3"/>
<text text-anchor="middle" x="463" y="-83.1" font-family="Times,serif" font-size="14.00">«BODY»</text>
<polyline fill="none" stroke="black" points="400.506,-74.9 525.494,-74.9 "/>
<text text-anchor="start" x="408.506" y="-58.3" font-family="Times,serif" font-size="14.00">+noscript : noscript</text>
<text text-anchor="start" x="408.506" y="-41.5" font-family="Times,serif" font-size="14.00">+root : div</text>
</g>
<!-- 41&#45;&gt;43 -->
<g id="edge33" class="edge"><title>41&#45;&gt;43</title>
<path fill="none" stroke="black" d="M397.514,-118.134C405.075,-112.288 413.266,-105.954 421.212,-99.8101"/>
<polygon fill="black" stroke="black" points="397.504,-118.141 395.204,-124.976 388.011,-125.481 390.311,-118.647 397.504,-118.141"/>
</g>
<!-- 1 -->
<g id="node6" class="node"><title>1</title>
<polygon fill="lightgreen" stroke="black" points="820.865,-446.7 820.865,-488.3 1105.13,-488.3 1105.13,-446.7 820.865,-446.7"/>
<text text-anchor="middle" x="963" y="-471.7" font-family="Times,serif" font-size="14.00">«CSS»</text>
<text text-anchor="middle" x="963" y="-454.9" font-family="Times,serif" font-size="14.00"> C:/dev/Custom&#45;MADE/dedoc&#45;web/src/App.css</text>
</g>
<!-- 10 -->
<g id="node7" class="node"><title>10</title>
<polygon fill="lightgreen" stroke="black" points="1549.12,-446.7 1549.12,-488.3 2072.88,-488.3 2072.88,-446.7 1549.12,-446.7"/>
<text text-anchor="middle" x="1811" y="-471.7" font-family="Times,serif" font-size="14.00">«CSS»</text>
<text text-anchor="middle" x="1811" y="-454.9" font-family="Times,serif" font-size="14.00"> C:/dev/Custom&#45;MADE/dedoc&#45;web/src/gui/pages/projects/settings/GeneralInformation.css</text>
</g>
<!-- 38 -->
<g id="node8" class="node"><title>38</title>
<polygon fill="palegreen" stroke="black" points="1700.78,-279.3 1700.78,-328.9 1807.22,-328.9 1807.22,-279.3 1700.78,-279.3"/>
<text text-anchor="middle" x="1754" y="-312.3" font-family="Times,serif" font-size="14.00">.info&#45;item</text>
<polyline fill="none" stroke="black" points="1700.78,-304.1 1807.22,-304.1 "/>
<text text-anchor="start" x="1708.78" y="-287.5" font-family="Times,serif" font-size="14.00">+margin = 20px</text>
</g>
<!-- 10&#45;&gt;38 -->
<g id="edge28" class="edge"><title>10&#45;&gt;38</title>
<path fill="none" stroke="black" d="M1799.85,-434.941C1788.9,-403.929 1772.43,-357.281 1762.49,-329.154"/>
<polygon fill="black" stroke="black" points="1799.9,-435.07 1805.67,-439.395 1803.9,-446.385 1798.13,-442.059 1799.9,-435.07"/>
</g>
<!-- 39 -->
<g id="node9" class="node"><title>39</title>
<polygon fill="palegreen" stroke="black" points="1814.71,-279.3 1814.71,-328.9 1921.29,-328.9 1921.29,-279.3 1814.71,-279.3"/>
<text text-anchor="middle" x="1868" y="-312.3" font-family="Times,serif" font-size="14.00">.info&#45;item&#45;small</text>
<polyline fill="none" stroke="black" points="1814.71,-304.1 1921.29,-304.1 "/>
<text text-anchor="start" x="1822.71" y="-287.5" font-family="Times,serif" font-size="14.00">+margin = 10px</text>
</g>
<!-- 10&#45;&gt;39 -->
<g id="edge29" class="edge"><title>10&#45;&gt;39</title>
<path fill="none" stroke="black" d="M1822.15,-434.941C1833.1,-403.929 1849.57,-357.281 1859.51,-329.154"/>
<polygon fill="black" stroke="black" points="1822.1,-435.07 1823.87,-442.059 1818.1,-446.385 1816.33,-439.395 1822.1,-435.07"/>
</g>
<!-- 2 -->
<g id="node10" class="node"><title>2</title>
<polygon fill="lightgreen" stroke="black" points="2535.37,-446.7 2535.37,-488.3 2826.63,-488.3 2826.63,-446.7 2535.37,-446.7"/>
<text text-anchor="middle" x="2681" y="-471.7" font-family="Times,serif" font-size="14.00">«CSS»</text>
<text text-anchor="middle" x="2681" y="-454.9" font-family="Times,serif" font-size="14.00"> C:/dev/Custom&#45;MADE/dedoc&#45;web/src/index.css</text>
</g>
<!-- 13 -->
<g id="node11" class="node"><title>13</title>
<polygon fill="palegreen" stroke="black" points="2375.21,-254.1 2375.21,-354.1 2678.79,-354.1 2678.79,-254.1 2375.21,-254.1"/>
<text text-anchor="middle" x="2527" y="-337.5" font-family="Times,serif" font-size="14.00">body</text>
<polyline fill="none" stroke="black" points="2375.21,-329.3 2678.79,-329.3 "/>
<text text-anchor="start" x="2383.21" y="-312.7" font-family="Times,serif" font-size="14.00">+&#45;moz&#45;osx&#45;font&#45;smoothing = grayscale</text>
<text text-anchor="start" x="2383.21" y="-295.9" font-family="Times,serif" font-size="14.00">+&#45;webkit&#45;font&#45;smoothing = antialiased</text>
<text text-anchor="start" x="2383.21" y="-279.1" font-family="Times,serif" font-size="14.00">+font&#45;family = &#45;apple&#45;system, BlinkMacSystemF...</text>
<text text-anchor="start" x="2383.21" y="-262.3" font-family="Times,serif" font-size="14.00">+margin = 0</text>
</g>
<!-- 2&#45;&gt;13 -->
<g id="edge3" class="edge"><title>2&#45;&gt;13</title>
<path fill="none" stroke="black" d="M2653.26,-437.431C2631.22,-414.33 2599.9,-381.5 2573.96,-354.319"/>
<polygon fill="black" stroke="black" points="2653.52,-437.703 2660.56,-439.283 2661.81,-446.385 2654.77,-444.805 2653.52,-437.703"/>
</g>
<!-- 14 -->
<g id="node12" class="node"><title>14</title>
<polygon fill="palegreen" stroke="black" points="2685.79,-279.3 2685.79,-328.9 2986.21,-328.9 2986.21,-279.3 2685.79,-279.3"/>
<text text-anchor="middle" x="2836" y="-312.3" font-family="Times,serif" font-size="14.00">code</text>
<polyline fill="none" stroke="black" points="2685.79,-304.1 2986.21,-304.1 "/>
<text text-anchor="start" x="2693.79" y="-287.5" font-family="Times,serif" font-size="14.00">+font&#45;family = source&#45;code&#45;pro, Menlo, Monaco...</text>
</g>
<!-- 2&#45;&gt;14 -->
<g id="edge4" class="edge"><title>2&#45;&gt;14</title>
<path fill="none" stroke="black" d="M2708.97,-437.378C2738.7,-406.419 2785.17,-358.028 2812.9,-329.154"/>
<polygon fill="black" stroke="black" points="2708.63,-437.73 2707.36,-444.828 2700.32,-446.385 2701.59,-439.287 2708.63,-437.73"/>
</g>
<!-- 3 -->
<g id="node13" class="node"><title>3</title>
<polygon fill="lightgreen" stroke="black" points="3239.5,-446.7 3239.5,-488.3 3678.5,-488.3 3678.5,-446.7 3239.5,-446.7"/>
<text text-anchor="middle" x="3459" y="-471.7" font-family="Times,serif" font-size="14.00">«CSS»</text>
<text text-anchor="middle" x="3459" y="-454.9" font-family="Times,serif" font-size="14.00"> C:/dev/Custom&#45;MADE/dedoc&#45;web/src/gui/shared/dumb/GenericModal.css</text>
</g>
<!-- 15 -->
<g id="node14" class="node"><title>15</title>
<polygon fill="palegreen" stroke="black" points="3402.29,-279.3 3402.29,-328.9 3515.71,-328.9 3515.71,-279.3 3402.29,-279.3"/>
<text text-anchor="middle" x="3459" y="-312.3" font-family="Times,serif" font-size="14.00">.clickable</text>
<polyline fill="none" stroke="black" points="3402.29,-304.1 3515.71,-304.1 "/>
<text text-anchor="start" x="3410.29" y="-287.5" font-family="Times,serif" font-size="14.00">+cursor = pointer</text>
</g>
<!-- 3&#45;&gt;15 -->
<g id="edge5" class="edge"><title>3&#45;&gt;15</title>
<path fill="none" stroke="black" d="M3459,-434.114C3459,-403.105 3459,-357.032 3459,-329.154"/>
<polygon fill="black" stroke="black" points="3459,-434.385 3463,-440.385 3459,-446.385 3455,-440.385 3459,-434.385"/>
</g>
<!-- 4 -->
<g id="node15" class="node"><title>4</title>
<polygon fill="lightgreen" stroke="black" points="3999.17,-446.7 3999.17,-488.3 4400.83,-488.3 4400.83,-446.7 3999.17,-446.7"/>
<text text-anchor="middle" x="4200" y="-471.7" font-family="Times,serif" font-size="14.00">«CSS»</text>
<text text-anchor="middle" x="4200" y="-454.9" font-family="Times,serif" font-size="14.00"> C:/dev/Custom&#45;MADE/dedoc&#45;web/src/gui/shared/layout/Header.css</text>
</g>
<!-- 11 -->
<g id="node16" class="node"><title>11</title>
<polygon fill="palegreen" stroke="black" points="3996.45,-228.9 3996.45,-379.3 4275.55,-379.3 4275.55,-228.9 3996.45,-228.9"/>
<text text-anchor="middle" x="4136" y="-362.7" font-family="Times,serif" font-size="14.00">.header</text>
<polyline fill="none" stroke="black" points="3996.45,-354.5 4275.55,-354.5 "/>
<text text-anchor="start" x="4004.45" y="-337.9" font-family="Times,serif" font-size="14.00">+background&#45;color = rgba108, 106, 103, 1</text>
<text text-anchor="start" x="4004.45" y="-321.1" font-family="Times,serif" font-size="14.00">+border = 1px solid rgba255, 255, 255, ...</text>
<text text-anchor="start" x="4004.45" y="-304.3" font-family="Times,serif" font-size="14.00">+box&#45;shadow = 0 4px 4px 0 rgba0, 0, 0, 0.24...</text>
<text text-anchor="start" x="4004.45" y="-287.5" font-family="Times,serif" font-size="14.00">+color = rgba255, 255, 255, 1</text>
<text text-anchor="start" x="4004.45" y="-270.7" font-family="Times,serif" font-size="14.00">+font&#45;family = Microsoft Sans Serif, sans&#45;s...</text>
<text text-anchor="start" x="4004.45" y="-253.9" font-family="Times,serif" font-size="14.00">+font&#45;size = 20px</text>
<text text-anchor="start" x="4004.45" y="-237.1" font-family="Times,serif" font-size="14.00">+height = 70px</text>
</g>
<!-- 4&#45;&gt;11 -->
<g id="edge1" class="edge"><title>4&#45;&gt;11</title>
<path fill="none" stroke="black" d="M4187.54,-435.067C4181.21,-419.104 4173.22,-398.975 4165.45,-379.357"/>
<polygon fill="black" stroke="black" points="4187.6,-435.23 4193.53,-439.333 4192.02,-446.385 4186.09,-442.282 4187.6,-435.23"/>
</g>
<!-- 12 -->
<g id="node17" class="node"><title>12</title>
<polygon fill="palegreen" stroke="black" points="4282.67,-279.3 4282.67,-328.9 4381.33,-328.9 4381.33,-279.3 4282.67,-279.3"/>
<text text-anchor="middle" x="4332" y="-312.3" font-family="Times,serif" font-size="14.00">.go&#45;back&#45;icon</text>
<polyline fill="none" stroke="black" points="4282.67,-304.1 4381.33,-304.1 "/>
<text text-anchor="start" x="4290.67" y="-287.5" font-family="Times,serif" font-size="14.00">+color = white</text>
</g>
<!-- 4&#45;&gt;12 -->
<g id="edge2" class="edge"><title>4&#45;&gt;12</title>
<path fill="none" stroke="black" d="M4267.22,-440.192C4271.47,-437.178 4275.45,-433.856 4279,-430.2 4306.6,-401.763 4320.8,-356.773 4327.3,-329.203"/>
<polygon fill="black" stroke="black" points="4267.08,-440.282 4264.13,-446.864 4256.92,-446.676 4259.87,-440.094 4267.08,-440.282"/>
</g>
<!-- 5 -->
<g id="node18" class="node"><title>5</title>
<polygon fill="lightgreen" stroke="black" points="4999,-446.7 4999,-488.3 5431,-488.3 5431,-446.7 4999,-446.7"/>
<text text-anchor="middle" x="5215" y="-471.7" font-family="Times,serif" font-size="14.00">«CSS»</text>
<text text-anchor="middle" x="5215" y="-454.9" font-family="Times,serif" font-size="14.00"> C:/dev/Custom&#45;MADE/dedoc&#45;web/src/gui/shared/layout/footer/footer.css</text>
</g>
<!-- 31 -->
<g id="node19" class="node"><title>31</title>
<polygon fill="palegreen" stroke="black" points="5158.28,-270.9 5158.28,-337.3 5271.72,-337.3 5271.72,-270.9 5158.28,-270.9"/>
<text text-anchor="middle" x="5215" y="-320.7" font-family="Times,serif" font-size="14.00">.footer_button</text>
<polyline fill="none" stroke="black" points="5158.28,-312.5 5271.72,-312.5 "/>
<text text-anchor="start" x="5166.28" y="-295.9" font-family="Times,serif" font-size="14.00">+color = 7e7c79</text>
<text text-anchor="start" x="5166.28" y="-279.1" font-family="Times,serif" font-size="14.00">+fontSize = 18px</text>
</g>
<!-- 5&#45;&gt;31 -->
<g id="edge21" class="edge"><title>5&#45;&gt;31</title>
<path fill="none" stroke="black" d="M5215,-434.066C5215,-405.978 5215,-365.559 5215,-337.485"/>
<polygon fill="black" stroke="black" points="5215,-434.385 5219,-440.385 5215,-446.385 5211,-440.385 5215,-434.385"/>
</g>
<!-- 6 -->
<g id="node20" class="node"><title>6</title>
<polygon fill="lightgreen" stroke="black" points="6536.05,-446.7 6536.05,-488.3 6957.95,-488.3 6957.95,-446.7 6536.05,-446.7"/>
<text text-anchor="middle" x="6747" y="-471.7" font-family="Times,serif" font-size="14.00">«CSS»</text>
<text text-anchor="middle" x="6747" y="-454.9" font-family="Times,serif" font-size="14.00"> C:/dev/Custom&#45;MADE/dedoc&#45;web/src/gui/shared/layout/sider/Sider.css</text>
</g>
<!-- 16 -->
<g id="node21" class="node"><title>16</title>
<polygon fill="palegreen" stroke="black" points="5681.45,-178.5 5681.45,-429.7 5960.55,-429.7 5960.55,-178.5 5681.45,-178.5"/>
<text text-anchor="middle" x="5821" y="-413.1" font-family="Times,serif" font-size="14.00">.sider</text>
<polyline fill="none" stroke="black" points="5681.45,-404.9 5960.55,-404.9 "/>
<text text-anchor="start" x="5689.45" y="-388.3" font-family="Times,serif" font-size="14.00">+background&#45;color = rgba108, 106, 103, 1</text>
<text text-anchor="start" x="5689.45" y="-371.5" font-family="Times,serif" font-size="14.00">+border = 1px solid rgba255, 255, 255, ...</text>
<text text-anchor="start" x="5689.45" y="-354.7" font-family="Times,serif" font-size="14.00">+box&#45;shadow = 0 4px 4px 0 rgba0, 0, 0, 0.24...</text>
<text text-anchor="start" x="5689.45" y="-337.9" font-family="Times,serif" font-size="14.00">+color = rgba16, 16, 16, 1</text>
<text text-anchor="start" x="5689.45" y="-321.1" font-family="Times,serif" font-size="14.00">+font&#45;family = Microsoft Sans Serif, sans&#45;s...</text>
<text text-anchor="start" x="5689.45" y="-304.3" font-family="Times,serif" font-size="14.00">+font&#45;size = 20px</text>
<text text-anchor="start" x="5689.45" y="-287.5" font-family="Times,serif" font-size="14.00">+height = 100vh</text>
<text text-anchor="start" x="5689.45" y="-270.7" font-family="Times,serif" font-size="14.00">+left = 0</text>
<text text-anchor="start" x="5689.45" y="-253.9" font-family="Times,serif" font-size="14.00">+line&#45;height = 24px</text>
<text text-anchor="start" x="5689.45" y="-237.1" font-family="Times,serif" font-size="14.00">+overflow = auto</text>
<text text-anchor="start" x="5689.45" y="-220.3" font-family="Times,serif" font-size="14.00">+position = fixed</text>
<text text-anchor="start" x="5689.45" y="-203.5" font-family="Times,serif" font-size="14.00">+text&#45;align = center</text>
<text text-anchor="start" x="5689.45" y="-186.7" font-family="Times,serif" font-size="14.00">+top = 0</text>
</g>
<!-- 6&#45;&gt;16 -->
<g id="edge6" class="edge"><title>6&#45;&gt;16</title>
<path fill="none" stroke="black" d="M6523.38,-463.586C6310.64,-459.607 6015.67,-450.487 5965,-430.2 5963.62,-429.646 5962.24,-429.073 5960.86,-428.482"/>
<polygon fill="black" stroke="black" points="6523.67,-463.592 6529.74,-459.703 6535.67,-463.812 6529.6,-467.701 6523.67,-463.592"/>
</g>
<!-- 17 -->
<g id="node22" class="node"><title>17</title>
<polygon fill="palegreen" stroke="black" points="5967.29,-270.9 5967.29,-337.3 6094.71,-337.3 6094.71,-270.9 5967.29,-270.9"/>
<text text-anchor="middle" x="6031" y="-320.7" font-family="Times,serif" font-size="14.00">.sider&#45;logo&#45;wrapper</text>
<polyline fill="none" stroke="black" points="5967.29,-312.5 6094.71,-312.5 "/>
<text text-anchor="start" x="5975.29" y="-295.9" font-family="Times,serif" font-size="14.00">+overflow = hidden</text>
<text text-anchor="start" x="5975.29" y="-279.1" font-family="Times,serif" font-size="14.00">+width = 100</text>
</g>
<!-- 6&#45;&gt;17 -->
<g id="edge7" class="edge"><title>6&#45;&gt;17</title>
<path fill="none" stroke="black" d="M6523.57,-464.6C6350.62,-461.364 6134.67,-452.781 6099,-430.2 6066.21,-409.439 6048.06,-367.091 6038.93,-337.442"/>
<polygon fill="black" stroke="black" points="6523.68,-464.602 6529.76,-460.711 6535.68,-464.819 6529.61,-468.71 6523.68,-464.602"/>
</g>
<!-- 18 -->
<g id="node23" class="node"><title>18</title>
<polygon fill="palegreen" stroke="black" points="6101.37,-262.5 6101.37,-345.7 6248.63,-345.7 6248.63,-262.5 6101.37,-262.5"/>
<text text-anchor="middle" x="6175" y="-329.1" font-family="Times,serif" font-size="14.00">.logo</text>
<polyline fill="none" stroke="black" points="6101.37,-320.9 6248.63,-320.9 "/>
<text text-anchor="start" x="6109.37" y="-304.3" font-family="Times,serif" font-size="14.00">+float = center</text>
<text text-anchor="start" x="6109.37" y="-287.5" font-family="Times,serif" font-size="14.00">+margin&#45;top = &#45;0.75em</text>
<text text-anchor="start" x="6109.37" y="-270.7" font-family="Times,serif" font-size="14.00">+width = 90</text>
</g>
<!-- 6&#45;&gt;18 -->
<g id="edge8" class="edge"><title>6&#45;&gt;18</title>
<path fill="none" stroke="black" d="M6523.6,-459.295C6404.24,-453.805 6276.95,-444.666 6253,-430.2 6221.78,-411.345 6201.15,-374.719 6188.99,-345.948"/>
<polygon fill="black" stroke="black" points="6523.88,-459.308 6530.05,-455.582 6535.87,-459.848 6529.69,-463.574 6523.88,-459.308"/>
</g>
<!-- 19 -->
<g id="node24" class="node"><title>19</title>
<polygon fill="palegreen" stroke="black" points="6255.91,-245.7 6255.91,-362.5 6510.09,-362.5 6510.09,-245.7 6255.91,-245.7"/>
<text text-anchor="middle" x="6383" y="-345.9" font-family="Times,serif" font-size="14.00">.mainmenu</text>
<polyline fill="none" stroke="black" points="6255.91,-337.7 6510.09,-337.7 "/>
<text text-anchor="start" x="6263.91" y="-321.1" font-family="Times,serif" font-size="14.00">+background&#45;color = rgba108, 106, 103, 1</text>
<text text-anchor="start" x="6263.91" y="-304.3" font-family="Times,serif" font-size="14.00">+color = rgba255, 255, 255, 0.85</text>
<text text-anchor="start" x="6263.91" y="-287.5" font-family="Times,serif" font-size="14.00">+text&#45;align = left</text>
<text text-anchor="start" x="6263.91" y="-270.7" font-family="Times,serif" font-size="14.00">+text&#45;indent = 10px</text>
<text text-anchor="start" x="6263.91" y="-253.9" font-family="Times,serif" font-size="14.00">+width = 101</text>
</g>
<!-- 6&#45;&gt;19 -->
<g id="edge9" class="edge"><title>6&#45;&gt;19</title>
<path fill="none" stroke="black" d="M6544.57,-442.913C6534.03,-439.236 6523.77,-435.023 6514,-430.2 6481.57,-414.195 6451.84,-387.324 6428.93,-362.58"/>
<polygon fill="black" stroke="black" points="6544.71,-442.957 6551.66,-441.026 6556.11,-446.696 6549.16,-448.627 6544.71,-442.957"/>
</g>
<!-- 20 -->
<g id="node25" class="node"><title>20</title>
<polygon fill="palegreen" stroke="black" points="6517.33,-254.1 6517.33,-354.1 6652.67,-354.1 6652.67,-254.1 6517.33,-254.1"/>
<text text-anchor="middle" x="6585" y="-337.5" font-family="Times,serif" font-size="14.00">.mainmenu&#45;container</text>
<polyline fill="none" stroke="black" points="6517.33,-329.3 6652.67,-329.3 "/>
<text text-anchor="start" x="6525.33" y="-312.7" font-family="Times,serif" font-size="14.00">+overflow = hidden</text>
<text text-anchor="start" x="6525.33" y="-295.9" font-family="Times,serif" font-size="14.00">+position = relative</text>
<text text-anchor="start" x="6525.33" y="-279.1" font-family="Times,serif" font-size="14.00">+top = 4.3</text>
<text text-anchor="start" x="6525.33" y="-262.3" font-family="Times,serif" font-size="14.00">+width = 100</text>
</g>
<!-- 6&#45;&gt;20 -->
<g id="edge10" class="edge"><title>6&#45;&gt;20</title>
<path fill="none" stroke="black" d="M6671.55,-440.712C6666.37,-437.567 6661.45,-434.074 6657,-430.2 6633.56,-409.805 6615.93,-379.817 6603.99,-354.314"/>
<polygon fill="black" stroke="black" points="6671.94,-440.924 6679.12,-440.296 6682.46,-446.686 6675.28,-447.314 6671.94,-440.924"/>
</g>
<!-- 21 -->
<g id="node26" class="node"><title>21</title>
<polygon fill="palegreen" stroke="black" points="6659.89,-254.1 6659.89,-354.1 6834.11,-354.1 6834.11,-254.1 6659.89,-254.1"/>
<text text-anchor="middle" x="6747" y="-337.5" font-family="Times,serif" font-size="14.00">.mainmenu&#45;image&#45;container</text>
<polyline fill="none" stroke="black" points="6659.89,-329.3 6834.11,-329.3 "/>
<text text-anchor="start" x="6667.89" y="-312.7" font-family="Times,serif" font-size="14.00">+display = table&#45;cell</text>
<text text-anchor="start" x="6667.89" y="-295.9" font-family="Times,serif" font-size="14.00">+padding&#45;bottom = 10px</text>
<text text-anchor="start" x="6667.89" y="-279.1" font-family="Times,serif" font-size="14.00">+padding&#45;left = 20px</text>
<text text-anchor="start" x="6667.89" y="-262.3" font-family="Times,serif" font-size="14.00">+vertical&#45;align = top</text>
</g>
<!-- 6&#45;&gt;21 -->
<g id="edge11" class="edge"><title>6&#45;&gt;21</title>
<path fill="none" stroke="black" d="M6747,-434.295C6747,-411.423 6747,-380.292 6747,-354.319"/>
<polygon fill="black" stroke="black" points="6747,-434.385 6751,-440.385 6747,-446.385 6743,-440.385 6747,-434.385"/>
</g>
<!-- 22 -->
<g id="node27" class="node"><title>22</title>
<polygon fill="palegreen" stroke="black" points="6841.22,-254.1 6841.22,-354.1 6982.78,-354.1 6982.78,-254.1 6841.22,-254.1"/>
<text text-anchor="middle" x="6912" y="-337.5" font-family="Times,serif" font-size="14.00">.sider&#45;bottom&#45;wrapper</text>
<polyline fill="none" stroke="black" points="6841.22,-329.3 6982.78,-329.3 "/>
<text text-anchor="start" x="6849.22" y="-312.7" font-family="Times,serif" font-size="14.00">+bottom = 0</text>
<text text-anchor="start" x="6849.22" y="-295.9" font-family="Times,serif" font-size="14.00">+overflow = hidden</text>
<text text-anchor="start" x="6849.22" y="-279.1" font-family="Times,serif" font-size="14.00">+position = absolute</text>
<text text-anchor="start" x="6849.22" y="-262.3" font-family="Times,serif" font-size="14.00">+width = 100</text>
</g>
<!-- 6&#45;&gt;22 -->
<g id="edge12" class="edge"><title>6&#45;&gt;22</title>
<path fill="none" stroke="black" d="M6822.38,-440.623C6827.57,-437.498 6832.51,-434.034 6837,-430.2 6860.87,-409.802 6879.22,-379.814 6891.78,-354.312"/>
<polygon fill="black" stroke="black" points="6821.98,-440.838 6818.62,-447.217 6811.44,-446.567 6814.8,-440.188 6821.98,-440.838"/>
</g>
<!-- 23 -->
<g id="node28" class="node"><title>23</title>
<polygon fill="palegreen" stroke="black" points="6989.53,-254.1 6989.53,-354.1 7190.47,-354.1 7190.47,-254.1 6989.53,-254.1"/>
<text text-anchor="middle" x="7090" y="-337.5" font-family="Times,serif" font-size="14.00">.sider&#45;bottom&#45;block</text>
<polyline fill="none" stroke="black" points="6989.53,-329.3 7190.47,-329.3 "/>
<text text-anchor="start" x="6997.53" y="-312.7" font-family="Times,serif" font-size="14.00">+color = rgba255, 255, 255, 0.85</text>
<text text-anchor="start" x="6997.53" y="-295.9" font-family="Times,serif" font-size="14.00">+display = table</text>
<text text-anchor="start" x="6997.53" y="-279.1" font-family="Times,serif" font-size="14.00">+float = left</text>
<text text-anchor="start" x="6997.53" y="-262.3" font-family="Times,serif" font-size="14.00">+font&#45;size = 15px</text>
</g>
<!-- 6&#45;&gt;23 -->
<g id="edge13" class="edge"><title>6&#45;&gt;23</title>
<path fill="none" stroke="black" d="M6942.58,-444.248C6961.14,-440.204 6976.54,-435.54 6986,-430.2 7017.48,-412.426 7043.48,-381.151 7061.61,-354.319"/>
<polygon fill="black" stroke="black" points="6942.4,-444.285 6937.32,-449.405 6930.64,-446.686 6935.72,-441.567 6942.4,-444.285"/>
</g>
<!-- 24 -->
<g id="node29" class="node"><title>24</title>
<polygon fill="palegreen" stroke="black" points="7197.89,-254.1 7197.89,-354.1 7354.11,-354.1 7354.11,-254.1 7197.89,-254.1"/>
<text text-anchor="middle" x="7276" y="-337.5" font-family="Times,serif" font-size="14.00">.sider&#45;last&#45;logo</text>
<polyline fill="none" stroke="black" points="7197.89,-329.3 7354.11,-329.3 "/>
<text text-anchor="start" x="7205.89" y="-312.7" font-family="Times,serif" font-size="14.00">+display = table&#45;cell</text>
<text text-anchor="start" x="7205.89" y="-295.9" font-family="Times,serif" font-size="14.00">+padding&#45;bottom = 25px</text>
<text text-anchor="start" x="7205.89" y="-279.1" font-family="Times,serif" font-size="14.00">+padding&#45;left = 22px</text>
<text text-anchor="start" x="7205.89" y="-262.3" font-family="Times,serif" font-size="14.00">+vertical&#45;align = top</text>
</g>
<!-- 6&#45;&gt;24 -->
<g id="edge14" class="edge"><title>6&#45;&gt;24</title>
<path fill="none" stroke="black" d="M6970.21,-456.994C7071.64,-451.09 7173.63,-442.292 7194,-430.2 7222.8,-413.097 7243.4,-381.465 7256.75,-354.29"/>
<polygon fill="black" stroke="black" points="6970.16,-456.997 6964.39,-461.333 6958.17,-457.681 6963.94,-453.346 6970.16,-456.997"/>
</g>
<!-- 25 -->
<g id="node30" class="node"><title>25</title>
<polygon fill="palegreen" stroke="black" points="7361.39,-254.1 7361.39,-354.1 7510.61,-354.1 7510.61,-254.1 7361.39,-254.1"/>
<text text-anchor="middle" x="7436" y="-337.5" font-family="Times,serif" font-size="14.00">.sider&#45;logo</text>
<polyline fill="none" stroke="black" points="7361.39,-329.3 7510.61,-329.3 "/>
<text text-anchor="start" x="7369.39" y="-312.7" font-family="Times,serif" font-size="14.00">+display = table&#45;cell</text>
<text text-anchor="start" x="7369.39" y="-295.9" font-family="Times,serif" font-size="14.00">+padding&#45;bottom = 7px</text>
<text text-anchor="start" x="7369.39" y="-279.1" font-family="Times,serif" font-size="14.00">+padding&#45;left = 20px</text>
<text text-anchor="start" x="7369.39" y="-262.3" font-family="Times,serif" font-size="14.00">+vertical&#45;align = top</text>
</g>
<!-- 6&#45;&gt;25 -->
<g id="edge15" class="edge"><title>6&#45;&gt;25</title>
<path fill="none" stroke="black" d="M6970.6,-463.035C7130.73,-458.893 7323.73,-449.852 7357,-430.2 7385.64,-413.284 7405.52,-381.47 7418.18,-354.159"/>
<polygon fill="black" stroke="black" points="6970.15,-463.047 6964.25,-467.197 6958.15,-463.349 6964.05,-459.199 6970.15,-463.047"/>
</g>
<!-- 26 -->
<g id="node31" class="node"><title>26</title>
<polygon fill="palegreen" stroke="black" points="7518.03,-262.5 7518.03,-345.7 7655.97,-345.7 7655.97,-262.5 7518.03,-262.5"/>
<text text-anchor="middle" x="7587" y="-329.1" font-family="Times,serif" font-size="14.00">.sider&#45;bottom&#45;text</text>
<polyline fill="none" stroke="black" points="7518.03,-320.9 7655.97,-320.9 "/>
<text text-anchor="start" x="7526.03" y="-304.3" font-family="Times,serif" font-size="14.00">+display = table&#45;cell</text>
<text text-anchor="start" x="7526.03" y="-287.5" font-family="Times,serif" font-size="14.00">+padding&#45;left = 15px</text>
<text text-anchor="start" x="7526.03" y="-270.7" font-family="Times,serif" font-size="14.00">+padding&#45;top = 1.5px</text>
</g>
<!-- 6&#45;&gt;26 -->
<g id="edge16" class="edge"><title>6&#45;&gt;26</title>
<path fill="none" stroke="black" d="M6970.37,-466.676C7180.12,-465.112 7468.39,-457.844 7514,-430.2 7544.75,-411.56 7563.93,-374.71 7574.86,-345.81"/>
<polygon fill="black" stroke="black" points="6970.25,-466.677 6964.28,-470.719 6958.25,-466.761 6964.22,-462.719 6970.25,-466.677"/>
</g>
<!-- 7 -->
<g id="node32" class="node"><title>7</title>
<polygon fill="lightgreen" stroke="black" points="7912.92,-446.7 7912.92,-488.3 8313.08,-488.3 8313.08,-446.7 7912.92,-446.7"/>
<text text-anchor="middle" x="8113" y="-471.7" font-family="Times,serif" font-size="14.00">«CSS»</text>
<text text-anchor="middle" x="8113" y="-454.9" font-family="Times,serif" font-size="14.00"> C:/dev/Custom&#45;MADE/dedoc&#45;web/src/gui/pages/sign_in/SignIn.css</text>
</g>
<!-- 44 -->
<g id="node33" class="node"><title>44</title>
<polygon fill="palegreen" stroke="black" points="7861.52,-212.1 7861.52,-396.1 8046.48,-396.1 8046.48,-212.1 7861.52,-212.1"/>
<text text-anchor="middle" x="7954" y="-379.5" font-family="Times,serif" font-size="14.00">.login&#45;form</text>
<polyline fill="none" stroke="black" points="7861.52,-371.3 8046.48,-371.3 "/>
<text text-anchor="start" x="7869.52" y="-354.7" font-family="Times,serif" font-size="14.00">+background = fbfbfb</text>
<text text-anchor="start" x="7869.52" y="-337.9" font-family="Times,serif" font-size="14.00">+border = 1px solid d9d9d9</text>
<text text-anchor="start" x="7869.52" y="-321.1" font-family="Times,serif" font-size="14.00">+border&#45;radius = 6px</text>
<text text-anchor="start" x="7869.52" y="-304.3" font-family="Times,serif" font-size="14.00">+left = 50</text>
<text text-anchor="start" x="7869.52" y="-287.5" font-family="Times,serif" font-size="14.00">+max&#45;width = 300px</text>
<text text-anchor="start" x="7869.52" y="-270.7" font-family="Times,serif" font-size="14.00">+padding = 24px</text>
<text text-anchor="start" x="7869.52" y="-253.9" font-family="Times,serif" font-size="14.00">+position = absolute</text>
<text text-anchor="start" x="7869.52" y="-237.1" font-family="Times,serif" font-size="14.00">+top = 50</text>
<text text-anchor="start" x="7869.52" y="-220.3" font-family="Times,serif" font-size="14.00">+transform = translate&#45;50, &#45;80</text>
</g>
<!-- 7&#45;&gt;44 -->
<g id="edge34" class="edge"><title>7&#45;&gt;44</title>
<path fill="none" stroke="black" d="M8062.96,-440.18C8058.4,-437.051 8054.01,-433.711 8050,-430.2 8038.47,-420.097 8027.39,-408.428 8017.11,-396.361"/>
<polygon fill="black" stroke="black" points="8062.98,-440.194 8070.19,-440.072 8073.07,-446.681 8065.86,-446.802 8062.98,-440.194"/>
</g>
<!-- 45 -->
<g id="node34" class="node"><title>45</title>
<polygon fill="palegreen" stroke="black" points="8053.49,-279.3 8053.49,-328.9 8172.51,-328.9 8172.51,-279.3 8053.49,-279.3"/>
<text text-anchor="middle" x="8113" y="-312.3" font-family="Times,serif" font-size="14.00">.login&#45;form&#45;forgot</text>
<polyline fill="none" stroke="black" points="8053.49,-304.1 8172.51,-304.1 "/>
<text text-anchor="start" x="8061.49" y="-287.5" font-family="Times,serif" font-size="14.00">+float = right</text>
</g>
<!-- 7&#45;&gt;45 -->
<g id="edge35" class="edge"><title>7&#45;&gt;45</title>
<path fill="none" stroke="black" d="M8113,-434.114C8113,-403.105 8113,-357.032 8113,-329.154"/>
<polygon fill="black" stroke="black" points="8113,-434.385 8117,-440.385 8113,-446.385 8109,-440.385 8113,-434.385"/>
</g>
<!-- 46 -->
<g id="node35" class="node"><title>46</title>
<polygon fill="palegreen" stroke="black" points="8179.7,-279.3 8179.7,-328.9 8300.3,-328.9 8300.3,-279.3 8179.7,-279.3"/>
<text text-anchor="middle" x="8240" y="-312.3" font-family="Times,serif" font-size="14.00">.login&#45;form&#45;button</text>
<polyline fill="none" stroke="black" points="8179.7,-304.1 8300.3,-304.1 "/>
<text text-anchor="start" x="8187.7" y="-287.5" font-family="Times,serif" font-size="14.00">+width = 100</text>
</g>
<!-- 7&#45;&gt;46 -->
<g id="edge36" class="edge"><title>7&#45;&gt;46</title>
<path fill="none" stroke="black" d="M8165.31,-439.73C8169.14,-436.78 8172.76,-433.601 8176,-430.2 8204.08,-400.683 8222.76,-356.44 8232.35,-329.244"/>
<polygon fill="black" stroke="black" points="8165.3,-439.731 8162.66,-446.441 8155.45,-446.585 8158.09,-439.875 8165.3,-439.731"/>
</g>
<!-- 8 -->
<g id="node36" class="node"><title>8</title>
<polygon fill="lightgreen" stroke="black" points="8598.61,-446.7 8598.61,-488.3 9059.39,-488.3 9059.39,-446.7 8598.61,-446.7"/>
<text text-anchor="middle" x="8829" y="-471.7" font-family="Times,serif" font-size="14.00">«CSS»</text>
<text text-anchor="middle" x="8829" y="-454.9" font-family="Times,serif" font-size="14.00"> C:/dev/Custom&#45;MADE/dedoc&#45;web/src/gui/pages/projects/M0ProjectsView.css</text>
</g>
<!-- 27 -->
<g id="node37" class="node"><title>27</title>
<polygon fill="palegreen" stroke="black" points="8575.92,-286.1 8575.92,-322.1 8670.08,-322.1 8670.08,-286.1 8575.92,-286.1"/>
<text text-anchor="middle" x="8623" y="-300" font-family="Times,serif" font-size="14.00">.action&#45;button</text>
</g>
<!-- 8&#45;&gt;27 -->
<g id="edge17" class="edge"><title>8&#45;&gt;27</title>
<path fill="none" stroke="black" d="M8688.59,-440.714C8683.45,-437.582 8678.55,-434.09 8674,-430.2 8641.01,-402.02 8629.06,-349.238 8624.98,-322.128"/>
<polygon fill="black" stroke="black" points="8688.94,-440.903 8696.12,-440.267 8699.47,-446.653 8692.29,-447.289 8688.94,-440.903"/>
</g>
<!-- 28 -->
<g id="node38" class="node"><title>28</title>
<polygon fill="palegreen" stroke="black" points="8676.96,-279.3 8676.96,-328.9 8865.04,-328.9 8865.04,-279.3 8676.96,-279.3"/>
<text text-anchor="middle" x="8771" y="-312.3" font-family="Times,serif" font-size="14.00">.activated&#45;settings</text>
<polyline fill="none" stroke="black" points="8676.96,-304.1 8865.04,-304.1 "/>
<text text-anchor="start" x="8684.96" y="-287.5" font-family="Times,serif" font-size="14.00">+background&#45;color = D5E8D4</text>
</g>
<!-- 8&#45;&gt;28 -->
<g id="edge18" class="edge"><title>8&#45;&gt;28</title>
<path fill="none" stroke="black" d="M8817.66,-434.941C8806.51,-403.929 8789.75,-357.281 8779.64,-329.154"/>
<polygon fill="black" stroke="black" points="8817.71,-435.092 8823.51,-439.386 8821.77,-446.385 8815.98,-442.091 8817.71,-435.092"/>
</g>
<!-- 29 -->
<g id="node39" class="node"><title>29</title>
<polygon fill="palegreen" stroke="black" points="8872.17,-279.3 8872.17,-328.9 9061.83,-328.9 9061.83,-279.3 8872.17,-279.3"/>
<text text-anchor="middle" x="8967" y="-312.3" font-family="Times,serif" font-size="14.00">.non&#45;activated&#45;settings</text>
<polyline fill="none" stroke="black" points="8872.17,-304.1 9061.83,-304.1 "/>
<text text-anchor="start" x="8880.17" y="-287.5" font-family="Times,serif" font-size="14.00">+background&#45;color = F8CECC</text>
</g>
<!-- 8&#45;&gt;29 -->
<g id="edge19" class="edge"><title>8&#45;&gt;29</title>
<path fill="none" stroke="black" d="M8860.59,-437.879C8863.15,-435.33 8865.65,-432.749 8868,-430.2 8898.81,-396.821 8930.77,-354.868 8949.77,-329.025"/>
<polygon fill="black" stroke="black" points="8860.47,-437.996 8858.93,-445.041 8851.84,-446.33 8853.38,-439.285 8860.47,-437.996"/>
</g>
<!-- 30 -->
<g id="node40" class="node"><title>30</title>
<polygon fill="palegreen" stroke="black" points="9068.54,-279.3 9068.54,-328.9 9163.46,-328.9 9163.46,-279.3 9068.54,-279.3"/>
<text text-anchor="middle" x="9116" y="-312.3" font-family="Times,serif" font-size="14.00">.full&#45;line&#45;field</text>
<polyline fill="none" stroke="black" points="9068.54,-304.1 9163.46,-304.1 "/>
<text text-anchor="start" x="9076.54" y="-287.5" font-family="Times,serif" font-size="14.00">+width = 100</text>
</g>
<!-- 8&#45;&gt;30 -->
<g id="edge20" class="edge"><title>8&#45;&gt;30</title>
<path fill="none" stroke="black" d="M9035.78,-443.504C9048.34,-439.717 9058.52,-435.315 9065,-430.2 9096.48,-405.352 9108.66,-357.882 9113.28,-329.098"/>
<polygon fill="black" stroke="black" points="9035.73,-443.517 9030.99,-448.956 9024.15,-446.676 9028.88,-441.238 9035.73,-443.517"/>
</g>
<!-- 9 -->
<g id="node41" class="node"><title>9</title>
<polygon fill="lightgreen" stroke="black" points="9768.45,-446.7 9768.45,-488.3 10329.6,-488.3 10329.6,-446.7 9768.45,-446.7"/>
<text text-anchor="middle" x="10049" y="-471.7" font-family="Times,serif" font-size="14.00">«CSS»</text>
<text text-anchor="middle" x="10049" y="-454.9" font-family="Times,serif" font-size="14.00"> C:/dev/Custom&#45;MADE/dedoc&#45;web/src/gui/pages/projects/edit_gitconfig/GitConnectionView.css</text>
</g>
<!-- 32 -->
<g id="node42" class="node"><title>32</title>
<polygon fill="palegreen" stroke="black" points="9696.56,-279.3 9696.56,-328.9 9815.44,-328.9 9815.44,-279.3 9696.56,-279.3"/>
<text text-anchor="middle" x="9756" y="-312.3" font-family="Times,serif" font-size="14.00">#navigation</text>
<polyline fill="none" stroke="black" points="9696.56,-304.1 9815.44,-304.1 "/>
<text text-anchor="start" x="9704.56" y="-287.5" font-family="Times,serif" font-size="14.00">+text&#45;align = right</text>
</g>
<!-- 9&#45;&gt;32 -->
<g id="edge22" class="edge"><title>9&#45;&gt;32</title>
<path fill="none" stroke="black" d="M9851.44,-443.727C9837.48,-439.872 9826.12,-435.394 9819,-430.2 9785.31,-405.617 9768.49,-357.827 9761.05,-328.956"/>
<polygon fill="black" stroke="black" points="9851.52,-443.748 9858.32,-441.339 9863.16,-446.687 9856.36,-449.095 9851.52,-443.748"/>
</g>
<!-- 33 -->
<g id="node43" class="node"><title>33</title>
<polygon fill="palegreen" stroke="black" points="9822.48,-279.3 9822.48,-328.9 9941.52,-328.9 9941.52,-279.3 9822.48,-279.3"/>
<text text-anchor="middle" x="9882" y="-312.3" font-family="Times,serif" font-size="14.00">.navigation&#45;button</text>
<polyline fill="none" stroke="black" points="9822.48,-304.1 9941.52,-304.1 "/>
<text text-anchor="start" x="9830.48" y="-287.5" font-family="Times,serif" font-size="14.00">+margin = 5px</text>
</g>
<!-- 9&#45;&gt;33 -->
<g id="edge23" class="edge"><title>9&#45;&gt;33</title>
<path fill="none" stroke="black" d="M9961.07,-441.02C9955.7,-437.821 9950.61,-434.23 9946,-430.2 9914.96,-403.064 9897.01,-357.237 9888.4,-329.223"/>
<polygon fill="black" stroke="black" points="9961.11,-441.041 9968.28,-440.343 9971.69,-446.7 9964.51,-447.398 9961.11,-441.041"/>
</g>
<!-- 34 -->
<g id="node44" class="node"><title>34</title>
<polygon fill="palegreen" stroke="black" points="9948.54,-279.3 9948.54,-328.9 10043.5,-328.9 10043.5,-279.3 9948.54,-279.3"/>
<text text-anchor="middle" x="9996" y="-312.3" font-family="Times,serif" font-size="14.00">.full&#45;line&#45;field</text>
<polyline fill="none" stroke="black" points="9948.54,-304.1 10043.5,-304.1 "/>
<text text-anchor="start" x="9956.54" y="-287.5" font-family="Times,serif" font-size="14.00">+width = 100</text>
</g>
<!-- 9&#45;&gt;34 -->
<g id="edge24" class="edge"><title>9&#45;&gt;34</title>
<path fill="none" stroke="black" d="M10038.6,-434.941C10028.5,-403.929 10013.1,-357.281 10003.9,-329.154"/>
<polygon fill="black" stroke="black" points="10038.7,-434.984 10044.3,-439.436 10042.4,-446.385 10036.7,-441.932 10038.7,-434.984"/>
</g>
<!-- 35 -->
<g id="node45" class="node"><title>35</title>
<polygon fill="palegreen" stroke="black" points="10050.3,-270.9 10050.3,-337.3 10153.7,-337.3 10153.7,-270.9 10050.3,-270.9"/>
<text text-anchor="middle" x="10102" y="-320.7" font-family="Times,serif" font-size="14.00">.small&#45;left&#45;field</text>
<polyline fill="none" stroke="black" points="10050.3,-312.5 10153.7,-312.5 "/>
<text text-anchor="start" x="10058.3" y="-295.9" font-family="Times,serif" font-size="14.00">+float = left</text>
<text text-anchor="start" x="10058.3" y="-279.1" font-family="Times,serif" font-size="14.00">+width = 20</text>
</g>
<!-- 9&#45;&gt;35 -->
<g id="edge25" class="edge"><title>9&#45;&gt;35</title>
<path fill="none" stroke="black" d="M10059.4,-434.825C10068.6,-406.711 10082.1,-365.813 10091.4,-337.485"/>
<polygon fill="black" stroke="black" points="10059.3,-434.984 10061.3,-441.932 10055.6,-446.385 10053.7,-439.436 10059.3,-434.984"/>
</g>
<!-- 36 -->
<g id="node46" class="node"><title>36</title>
<polygon fill="palegreen" stroke="black" points="10160.6,-270.9 10160.6,-337.3 10269.4,-337.3 10269.4,-270.9 10160.6,-270.9"/>
<text text-anchor="middle" x="10215" y="-320.7" font-family="Times,serif" font-size="14.00">.large&#45;right&#45;field</text>
<polyline fill="none" stroke="black" points="10160.6,-312.5 10269.4,-312.5 "/>
<text text-anchor="start" x="10168.6" y="-295.9" font-family="Times,serif" font-size="14.00">+float = right</text>
<text text-anchor="start" x="10168.6" y="-279.1" font-family="Times,serif" font-size="14.00">+width = 100</text>
</g>
<!-- 9&#45;&gt;36 -->
<g id="edge26" class="edge"><title>9&#45;&gt;36</title>
<path fill="none" stroke="black" d="M10142.7,-440.738C10147.8,-437.616 10152.6,-434.118 10157,-430.2 10184.4,-405.682 10199.8,-365.589 10207.7,-337.414"/>
<polygon fill="black" stroke="black" points="10142.5,-440.877 10139.1,-447.265 10131.9,-446.632 10135.3,-440.245 10142.5,-440.877"/>
</g>
<!-- 37 -->
<g id="node47" class="node"><title>37</title>
<polygon fill="palegreen" stroke="black" points="10276.9,-270.9 10276.9,-337.3 10439.1,-337.3 10439.1,-270.9 10276.9,-270.9"/>
<text text-anchor="middle" x="10358" y="-320.7" font-family="Times,serif" font-size="14.00">#check&#45;connection&#45;button</text>
<polyline fill="none" stroke="black" points="10276.9,-312.5 10439.1,-312.5 "/>
<text text-anchor="start" x="10284.9" y="-295.9" font-family="Times,serif" font-size="14.00">+float = left</text>
<text text-anchor="start" x="10284.9" y="-279.1" font-family="Times,serif" font-size="14.00">+width = 100</text>
</g>
<!-- 9&#45;&gt;37 -->
<g id="edge27" class="edge"><title>9&#45;&gt;37</title>
<path fill="none" stroke="black" d="M10234.8,-444.038C10251.2,-440.059 10264.7,-435.468 10273,-430.2 10307.5,-408.188 10331.6,-366.549 10345,-337.377"/>
<polygon fill="black" stroke="black" points="10234.7,-444.059 10229.7,-449.28 10223,-446.696 10228,-441.475 10234.7,-444.059"/>
</g>
</g>
</svg>
