<?xml version="1.0" encoding="UTF-8" standalone="no"?>
<svg
   xmlns:dc="http://purl.org/dc/elements/1.1/"
   xmlns:cc="http://creativecommons.org/ns#"
   xmlns:rdf="http://www.w3.org/1999/02/22-rdf-syntax-ns#"
   xmlns:svg="http://www.w3.org/2000/svg"
   xmlns="http://www.w3.org/2000/svg"
   xmlns:sodipodi="http://sodipodi.sourceforge.net/DTD/sodipodi-0.dtd"
   xmlns:inkscape="http://www.inkscape.org/namespaces/inkscape"
   version="1.1"
   width="133"
   height="131.66"
   viewBox="-0.5 -0.5 133 131.66"
   id="svg41"
   sodipodi:docname="projects.svg"
   inkscape:version="0.92.4 (5da689c313, 2019-01-14)">
  <metadata
     id="metadata45">
    <rdf:RDF>
      <cc:Work
         rdf:about="">
        <dc:format>image/svg+xml</dc:format>
        <dc:type
           rdf:resource="http://purl.org/dc/dcmitype/StillImage" />
      </cc:Work>
    </rdf:RDF>
  </metadata>
  <sodipodi:namedview
     pagecolor="#ffffff"
     bordercolor="#666666"
     borderopacity="1"
     objecttolerance="10"
     gridtolerance="10"
     guidetolerance="10"
     inkscape:pageopacity="0"
     inkscape:pageshadow="2"
     inkscape:window-width="725"
     inkscape:window-height="480"
     id="namedview43"
     showgrid="false"
     inkscape:zoom="1.7352941"
     inkscape:cx="66"
     inkscape:cy="66.160004"
     inkscape:window-x="0"
     inkscape:window-y="0"
     inkscape:window-maximized="0"
     inkscape:current-layer="svg41" />
  <defs
     id="defs7">
    <linearGradient
       x1="44"
       y1="129"
       x2="44"
       y2="85"
       id="mx-gradient-ffffff-1-b3b3b3-1-s-0"
       gradientUnits="userSpaceOnUse">
      <stop
         offset="0%"
         style="stop-color:#B3B3B3"
         id="stop2" />
      <stop
         offset="100%"
         style="stop-color:#ffffff"
         id="stop4" />
    </linearGradient>
  </defs>
  <g
     id="g39"
     transform="translate(-2.5,-2.5)">
    <rect
       x="2"
       y="2"
       width="133"
       height="131.66"
       pointer-events="all"
       id="rect9"
       style="fill:#6c6a67;stroke:none" />
    <circle
       cx="66"
       cy="57"
       pointer-events="all"
       id="ellipse11"
       r="35"
       style="fill:#6c6a67;stroke:#ffffff;stroke-width:4" />
    <circle
       cx="66"
       cy="87"
       pointer-events="all"
       id="ellipse13"
       r="35"
       style="fill:#6c6a67;stroke:none" />
    <circle
       cx="66"
       cy="107"
       pointer-events="all"
       id="ellipse15"
       r="20"
       style="fill:url(#mx-gradient-ffffff-1-b3b3b3-1-s-0);stroke:#ffffff;stroke-width:4" />
    <rect
       x="31"
       y="77"
       width="70"
       height="30"
       pointer-events="all"
       id="rect17"
       style="fill:#6c6a67;stroke:none" />
    <path
       d="m 46,107 39.67,-0.03"
       stroke-miterlimit="10"
       pointer-events="stroke"
       id="path19"
       inkscape:connector-curvature="0"
       style="fill:none;stroke:#ffffff;stroke-width:4;stroke-miterlimit:10" />
    <path
       d="m 34.36,72.16 6.58,11.21 Q 46,92 46.06,99.42 l 0.06,7.43"
       stroke-miterlimit="10"
       pointer-events="stroke"
       id="path21"
       inkscape:connector-curvature="0"
       style="fill:none;stroke:#ffffff;stroke-width:4;stroke-miterlimit:10" />
    <path
       d="M 97.64,71.81 91.19,82.45 Q 86,91 85.84,98.92 l -0.17,7.93"
       stroke-miterlimit="10"
       pointer-events="stroke"
       id="path23"
       inkscape:connector-curvature="0"
       style="fill:none;stroke:#ffffff;stroke-width:4;stroke-miterlimit:10" />
    <path
       d="m 6,86 0.01,0.03 3.97,-2.27 3.96,-2.27 3.96,-2.26 4.04,-2.14 L 26,75"
       stroke-miterlimit="10"
       pointer-events="stroke"
       id="path25"
       inkscape:connector-curvature="0"
       style="fill:none;stroke:#ffffff;stroke-width:5;stroke-linecap:round;stroke-linejoin:round;stroke-miterlimit:10" />
    <path
       d="m 123,85 0.11,0.14 -2.98,-2.44 -2.83,-2.25 -2.76,-2.16 -2.75,-2.15 -2.73,-2.12"
       stroke-miterlimit="10"
       pointer-events="stroke"
       id="path27"
       inkscape:connector-curvature="0"
       style="fill:none;stroke:#ffffff;stroke-width:5;stroke-linecap:round;stroke-linejoin:round;stroke-miterlimit:10" />
    <path
       d="m 131,54 v 0.13 l -4.2,-0.12 -4.2,-0.25 -4.2,0.19 -4.2,0.16 L 110,54"
       stroke-miterlimit="10"
       pointer-events="stroke"
       id="path29"
       inkscape:connector-curvature="0"
       style="fill:none;stroke:#ffffff;stroke-width:5;stroke-linecap:round;stroke-linejoin:round;stroke-miterlimit:10" />
    <path
       d="M 21,54 V 53.75 L 18,54.02 15,53.9 12,53.81 9,53.92 6,54"
       stroke-miterlimit="10"
       pointer-events="stroke"
       id="path31"
       inkscape:connector-curvature="0"
       style="fill:none;stroke:#ffffff;stroke-width:5;stroke-linecap:round;stroke-linejoin:round;stroke-miterlimit:10" />
    <path
       d="M 25,33 24.96,32.93 21.18,30.77 17.36,28.53 13.57,26.35 9.7,24.02 6,22"
       stroke-miterlimit="10"
       pointer-events="stroke"
       id="path33"
       inkscape:connector-curvature="0"
       style="fill:none;stroke:#ffffff;stroke-width:5;stroke-linecap:round;stroke-linejoin:round;stroke-miterlimit:10" />
    <path
       d="m 108,36 0.11,0.14 3.1,-2.53 3.24,-2.34 3.07,-2.58 3.34,-2.22 L 124,24"
       stroke-miterlimit="10"
       pointer-events="stroke"
       id="path35"
       inkscape:connector-curvature="0"
       style="fill:none;stroke:#ffffff;stroke-width:5;stroke-linecap:round;stroke-linejoin:round;stroke-miterlimit:10" />
    <path
       d="m 51.63,80.96 9.58,-10.03 -8.14,-7.03 8.14,-6.02 -8.14,-9.03 14.85,-15.8 12.46,12.79 -11.5,7.03 6.71,7.02 -10.06,6.02 6.22,5.52 z"
       pointer-events="all"
       id="path37"
       inkscape:connector-curvature="0"
       style="fill:#ffffff;stroke:none" />
  </g>
</svg>
