<?xml version="1.0" encoding="UTF-8" standalone="no"?>
<!-- Generator: Adobe Illustrator 16.0.0, SVG Export Plug-In . SVG Version: 6.00 Build 0)  -->

<svg
   xmlns:dc="http://purl.org/dc/elements/1.1/"
   xmlns:cc="http://creativecommons.org/ns#"
   xmlns:rdf="http://www.w3.org/1999/02/22-rdf-syntax-ns#"
   xmlns:svg="http://www.w3.org/2000/svg"
   xmlns="http://www.w3.org/2000/svg"
   xmlns:sodipodi="http://sodipodi.sourceforge.net/DTD/sodipodi-0.dtd"
   xmlns:inkscape="http://www.inkscape.org/namespaces/inkscape"
   version="1.1"
   id="Capa_1"
   x="0px"
   y="0px"
   width="548.176px"
   height="548.176px"
   viewBox="0 0 548.176 548.176"
   style="enable-background:new 0 0 548.176 548.176;"
   xml:space="preserve"
   sodipodi:docname="cloud-storage-download.svg"
   inkscape:version="0.92.4 (5da689c313, 2019-01-14)"><metadata
   id="metadata1875"><rdf:RDF><cc:Work
       rdf:about=""><dc:format>image/svg+xml</dc:format><dc:type
         rdf:resource="http://purl.org/dc/dcmitype/StillImage" /></cc:Work></rdf:RDF></metadata><defs
   id="defs1873" /><sodipodi:namedview
   pagecolor="#ffffff"
   bordercolor="#666666"
   borderopacity="1"
   objecttolerance="10"
   gridtolerance="10"
   guidetolerance="10"
   inkscape:pageopacity="0"
   inkscape:pageshadow="2"
   inkscape:window-width="2560"
   inkscape:window-height="1573"
   id="namedview1871"
   showgrid="false"
   inkscape:zoom="1.2176906"
   inkscape:cx="662.88964"
   inkscape:cy="515.55838"
   inkscape:window-x="1080"
   inkscape:window-y="0"
   inkscape:window-maximized="1"
   inkscape:current-layer="Capa_1" />
<g
   id="g1838">
	<path
   d="M524.326,297.352c-15.896-19.89-36.21-32.782-60.959-38.684c7.81-11.8,11.704-24.934,11.704-39.399   c0-20.177-7.139-37.401-21.409-51.678c-14.273-14.272-31.498-21.411-51.675-21.411c-18.083,0-33.879,5.901-47.39,17.703   c-11.225-27.41-29.171-49.393-53.817-65.95c-24.646-16.562-51.818-24.842-81.514-24.842c-40.349,0-74.802,14.279-103.353,42.83   c-28.553,28.544-42.825,62.999-42.825,103.351c0,2.474,0.191,6.567,0.571,12.275c-22.459,10.469-40.349,26.171-53.676,47.106   C6.661,299.594,0,322.43,0,347.179c0,35.214,12.517,65.329,37.544,90.358c25.028,25.037,55.15,37.548,90.362,37.548h310.636   c30.259,0,56.096-10.711,77.512-32.12c21.413-21.409,32.121-47.246,32.121-77.516C548.172,339.944,540.223,317.248,524.326,297.352   z M362.595,308.344L262.38,408.565c-1.711,1.707-3.901,2.566-6.567,2.566c-2.664,0-4.854-0.859-6.567-2.566L148.75,308.063   c-1.713-1.711-2.568-3.901-2.568-6.567c0-2.474,0.9-4.616,2.708-6.423c1.812-1.808,3.949-2.711,6.423-2.711h63.954V191.865   c0-2.474,0.905-4.616,2.712-6.427c1.809-1.805,3.949-2.708,6.423-2.708h54.823c2.478,0,4.609,0.9,6.427,2.708   c1.804,1.811,2.707,3.953,2.707,6.427v100.497h63.954c2.665,0,4.855,0.855,6.563,2.566c1.714,1.711,2.562,3.901,2.562,6.567   C365.438,303.789,364.494,306.064,362.595,308.344z"
   id="path1836" />
</g>
<g
   id="g1840">
</g>
<g
   id="g1842">
</g>
<g
   id="g1844">
</g>
<g
   id="g1846">
</g>
<g
   id="g1848">
</g>
<g
   id="g1850">
</g>
<g
   id="g1852">
</g>
<g
   id="g1854">
</g>
<g
   id="g1856">
</g>
<g
   id="g1858">
</g>
<g
   id="g1860">
</g>
<g
   id="g1862">
</g>
<g
   id="g1864">
</g>
<g
   id="g1866">
</g>
<g
   id="g1868">
</g>
<path
   style="fill:#ffffff;stroke:#ffffff;stroke-width:0.29034746"
   d="M 117.52126,474.58171 C 103.85124,473.55013 90.329124,470.33984 78.363965,465.2853 47.751966,452.35366 20.737472,424.72655 8.6979962,394.03952 -0.81227608,369.79911 -2.4917283,340.87989 4.1284981,315.35536 c 2.1512953,-8.2944 4.6862352,-15.21057 8.4081659,-22.9403 12.395079,-25.74219 32.204626,-46.0881 57.242757,-58.79265 l 4.06319,-2.0617 -0.227084,-2.67101 c -0.352726,-4.14885 -0.242347,-19.37687 0.170884,-23.57604 2.46694,-25.06839 9.724823,-45.9892 22.764481,-65.61853 9.259798,-13.93929 22.924458,-28.32035 36.632188,-38.55273 21.8543,-16.313518 46.4305,-25.399287 74.3459,-27.485517 5.21669,-0.389865 18.05788,-0.393276 23.09717,-0.0061 28.46423,2.186749 54.19108,12.067007 77.50822,29.766627 14.28522,10.84363 25.94026,23.65312 35.26953,38.76305 2.89346,4.68629 7.61729,13.74645 9.75521,18.71007 0.6878,1.59691 1.28757,2.95436 1.33281,3.01655 0.0452,0.0622 0.55857,-0.26445 1.14075,-0.72587 8.50909,-6.74406 14.32435,-10.07509 22.63842,-12.96747 7.73889,-2.69229 14.67436,-3.79511 23.79069,-3.78301 6.64396,0.009 11.02426,0.46051 16.69498,1.72155 10.31759,2.29442 21.07989,7.63933 29.3251,14.56382 3.22698,2.71008 8.67224,8.24376 11.29605,11.47945 8.38259,10.33746 13.72478,23.39169 15.14618,37.01141 0.52268,5.00822 0.20771,15.83309 -0.59196,20.34591 -1.59087,8.97773 -4.90652,17.77633 -9.44997,25.07721 l -1.29823,2.08608 3.8451,1.05045 c 14.86602,4.06128 27.95535,10.68565 39.9053,20.19565 3.39518,2.70194 12.82232,12.03314 15.66375,15.50432 15.26218,18.64471 23.23094,38.0666 25.09685,61.16747 0.48114,5.95661 0.18464,18.04955 -0.58255,23.75918 -3.07487,22.88396 -11.82269,41.4079 -27.8656,59.00671 -9.53522,10.45997 -22.29788,19.96161 -34.40842,25.61671 -9.63608,4.49964 -19.41841,7.31377 -31.53025,9.07049 l -4.50039,0.65276 -164.04632,0.0414 c -90.22547,0.0226 -165.48354,-0.067 -167.24014,-0.19958 z M 260.05165,410.3218 c 1.19778,-0.58978 11.28798,-10.54443 52.61995,-51.91295 57.35446,-57.40518 52.77472,-52.46056 52.78486,-56.99017 0.004,-1.89379 -0.1333,-2.62129 -0.74466,-3.93903 -0.88521,-1.90808 -2.41598,-3.48246 -4.27792,-4.39981 l -1.34352,-0.66194 -33.31421,-0.0774 -33.31421,-0.0774 -0.0758,-51.4593 -0.0757,-51.45931 -0.64968,-1.31822 c -0.90005,-1.82619 -2.82601,-3.7035 -4.72175,-4.60249 l -1.59691,-0.75728 h -29.61544 -29.61545 l -1.34608,0.66972 c -2.17552,1.08238 -3.62728,2.52438 -4.66643,4.6351 l -0.95583,1.94145 -0.0781,51.17515 -0.0781,51.17514 -33.16672,0.0774 -33.16671,0.0774 -1.24706,0.66586 c -1.82117,0.9724 -3.31865,2.43299 -4.28752,4.18192 -0.77592,1.40063 -0.85306,1.78928 -0.85306,4.29817 0,2.30707 0.11325,2.99579 0.69231,4.21004 0.56264,1.17983 10.2696,11.03134 51.82702,52.59877 35.60763,35.61622 51.50804,51.33259 52.36418,51.75803 1.83962,0.91422 3.19959,1.17571 5.41831,1.04174 1.3591,-0.0821 2.47824,-0.3553 3.48417,-0.85063 z"
   id="path2443"
   inkscape:connector-curvature="0" /></svg>