<?xml version="1.0" encoding="UTF-8" standalone="no"?>
<!-- Generator: Adobe Illustrator 19.0.0, SVG Export Plug-In . SVG Version: 6.00 Build 0)  -->

<svg
   xmlns:dc="http://purl.org/dc/elements/1.1/"
   xmlns:cc="http://creativecommons.org/ns#"
   xmlns:rdf="http://www.w3.org/1999/02/22-rdf-syntax-ns#"
   xmlns:svg="http://www.w3.org/2000/svg"
   xmlns="http://www.w3.org/2000/svg"
   xmlns:sodipodi="http://sodipodi.sourceforge.net/DTD/sodipodi-0.dtd"
   xmlns:inkscape="http://www.inkscape.org/namespaces/inkscape"
   version="1.1"
   id="Capa_1"
   x="0px"
   y="0px"
   viewBox="0 0 512 512"
   style="enable-background:new 0 0 512 512;"
   xml:space="preserve"
   sodipodi:docname="logout (1).svg"
   inkscape:version="0.92.4 (5da689c313, 2019-01-14)"><metadata
   id="metadata5299"><rdf:RDF><cc:Work
       rdf:about=""><dc:format>image/svg+xml</dc:format><dc:type
         rdf:resource="http://purl.org/dc/dcmitype/StillImage" /></cc:Work></rdf:RDF></metadata><defs
   id="defs5297" /><sodipodi:namedview
   pagecolor="#ffffff"
   bordercolor="#666666"
   borderopacity="1"
   objecttolerance="10"
   gridtolerance="10"
   guidetolerance="10"
   inkscape:pageopacity="0"
   inkscape:pageshadow="2"
   inkscape:window-width="2560"
   inkscape:window-height="1573"
   id="namedview5295"
   showgrid="false"
   inkscape:zoom="2.6074563"
   inkscape:cx="343.74777"
   inkscape:cy="137.07438"
   inkscape:window-x="1200"
   inkscape:window-y="0"
   inkscape:window-maximized="1"
   inkscape:current-layer="Capa_1" />
<g
   id="g5262"
   style="fill:#ffaaaa">
	<path
   style="fill:#ffaaaa"
   d="M255.15,511.15H63.787C28.619,511.15,0,482.53,0,447.362V64.638C0,29.47,28.619,0.85,63.787,0.85   H255.15c11.737,0,21.262,9.526,21.262,21.262s-9.526,21.262-21.262,21.262H63.787c-11.716,0-21.262,9.547-21.262,21.262v382.724   c0,11.737,9.547,21.262,21.262,21.262H255.15c11.737,0,21.262,9.504,21.262,21.262C276.412,501.645,266.886,511.15,255.15,511.15z"
   id="path5256" />
	<path
   style="fill:#ffaaaa"
   d="M446.512,277.262h-255.15c-11.737,0-21.262-9.504-21.262-21.262   c0-11.737,9.526-21.262,21.262-21.262h255.15c11.758,0,21.262,9.526,21.262,21.262C467.774,267.758,458.27,277.262,446.512,277.262   z"
   id="path5258" />
	<path
   style="fill:#ffaaaa"
   d="M361.462,404.837c-5.486,0-10.971-2.126-15.139-6.336c-8.25-8.356-8.165-21.815,0.213-30.065   L460.46,256L346.536,143.564c-8.377-8.25-8.441-21.709-0.213-30.086c8.229-8.377,21.73-8.441,30.065-0.191l129.276,127.575   c4.04,3.997,6.336,9.441,6.336,15.139s-2.275,11.12-6.336,15.139L376.388,398.714C372.263,402.796,366.862,404.837,361.462,404.837   z"
   id="path5260" />
</g>
<g
   id="g5264">
</g>
<g
   id="g5266">
</g>
<g
   id="g5268">
</g>
<g
   id="g5270">
</g>
<g
   id="g5272">
</g>
<g
   id="g5274">
</g>
<g
   id="g5276">
</g>
<g
   id="g5278">
</g>
<g
   id="g5280">
</g>
<g
   id="g5282">
</g>
<g
   id="g5284">
</g>
<g
   id="g5286">
</g>
<g
   id="g5288">
</g>
<g
   id="g5290">
</g>
<g
   id="g5292">
</g>
</svg>