<?xml version="1.0" encoding="UTF-8" standalone="no"?>
<svg
   xmlns:dc="http://purl.org/dc/elements/1.1/"
   xmlns:cc="http://creativecommons.org/ns#"
   xmlns:rdf="http://www.w3.org/1999/02/22-rdf-syntax-ns#"
   xmlns:svg="http://www.w3.org/2000/svg"
   xmlns="http://www.w3.org/2000/svg"
   xmlns:sodipodi="http://sodipodi.sourceforge.net/DTD/sodipodi-0.dtd"
   xmlns:inkscape="http://www.inkscape.org/namespaces/inkscape"
   id="Layer_1"
   enable-background="new 0 0 512 512"
   height="512"
   viewBox="0 0 512 512"
   width="512"
   version="1.1"
   sodipodi:docname="settings (1).svg"
   inkscape:version="0.92.4 (5da689c313, 2019-01-14)">
  <metadata
     id="metadata918">
    <rdf:RDF>
      <cc:Work
         rdf:about="">
        <dc:format>image/svg+xml</dc:format>
        <dc:type
           rdf:resource="http://purl.org/dc/dcmitype/StillImage" />
      </cc:Work>
    </rdf:RDF>
  </metadata>
  <defs
     id="defs916" />
  <sodipodi:namedview
     pagecolor="#ffffff"
     bordercolor="#666666"
     borderopacity="1"
     objecttolerance="10"
     gridtolerance="10"
     guidetolerance="10"
     inkscape:pageopacity="0"
     inkscape:pageshadow="2"
     inkscape:window-width="2560"
     inkscape:window-height="1573"
     id="namedview914"
     showgrid="false"
     inkscape:zoom="7.6787377"
     inkscape:cx="193.09934"
     inkscape:cy="477.12801"
     inkscape:window-x="1200"
     inkscape:window-y="0"
     inkscape:window-maximized="1"
     inkscape:current-layer="Layer_1" />
  <path
     d="m464.866 192.8h-10.87c-3.531-11.05-7.986-21.784-13.323-32.097l7.698-7.698c18.665-18.645 18.165-48.525.006-66.665l-22.711-22.71c-18.129-18.153-48.015-18.679-66.665-.007l-7.704 7.704c-10.313-5.336-21.048-9.792-32.097-13.323v-10.871c0-25.989-21.144-47.133-47.134-47.133h-32.133c-25.989 0-47.133 21.144-47.133 47.133v10.871c-11.049 3.53-21.784 7.986-32.097 13.323l-7.697-7.697c-18.613-18.635-48.498-18.198-66.664-.006l-22.713 22.711c-18.152 18.132-18.677 48.014-.006 66.665l7.704 7.704c-5.337 10.313-9.792 21.046-13.323 32.097h-10.87c-25.989-.001-47.134 21.143-47.134 47.132v32.134c0 25.989 21.145 47.133 47.134 47.133h10.87c3.531 11.05 7.986 21.784 13.323 32.097l-7.698 7.698c-18.665 18.645-18.165 48.525-.006 66.665l22.711 22.71c18.129 18.153 48.015 18.679 66.665.007l7.704-7.704c10.313 5.336 21.048 9.792 32.097 13.323v10.871c0 25.989 21.145 47.133 47.134 47.133h32.133c25.989 0 47.134-21.144 47.134-47.133v-10.871c11.049-3.53 21.784-7.986 32.097-13.323l7.697 7.697c18.613 18.635 48.497 18.198 66.664.006l22.713-22.712c18.152-18.132 18.677-48.014.006-66.665l-7.704-7.704c5.337-10.313 9.792-21.046 13.323-32.097h10.87c25.989 0 47.134-21.144 47.134-47.133v-32.134c-.001-25.987-21.146-47.131-47.135-47.131zm-208.866 174.6c-61.427 0-111.4-49.974-111.4-111.4s49.973-111.4 111.4-111.4 111.4 49.974 111.4 111.4-49.973 111.4-111.4 111.4z"
     id="path911" />
  <path
     style="fill:#ffffff;stroke-width:2.94676256"
     d="m 220.12273,505.01548 c -14.88076,-7.66647 -26.52086,-26.3089 -26.52086,-42.47499 0,-8.5475 -1.36183,-9.89974 -15.92075,-15.80879 l -15.92074,-6.46175 -12.4214,8.99803 C 123.13981,468.24654 101.62676,463.7184 73.097272,433.22026 48.147146,406.5485 45.240842,383.99238 63.781657,360.92082 l 8.892336,-11.0653 -7.274442,-16.44883 C 58.203108,317.13426 57.989857,316.9579 45.511561,316.9579 29.833638,316.9579 13.68901,306.68091 6.9035919,292.38171 0.44643739,278.77426 0.17284728,231.91615 6.4793465,219.72072 13.32909,206.47478 28.990445,196.16529 45.199699,194.23205 c 14.23073,-1.69726 14.367151,-1.81682 20.845788,-18.26962 l 6.521315,-16.56118 -6.897953,-7.41448 c -3.793871,-4.07797 -8.386017,-10.31091 -10.204768,-13.85098 -4.244765,-8.26214 -4.258611,-28.9188 -0.02505,-37.22198 4.753612,-9.322929 35.131006,-40.049674 44.456694,-44.967957 15.576005,-8.214648 38.516225,-4.191996 52.580045,9.220105 l 7.49558,7.14823 16.50107,-6.494803 c 16.48499,-6.488473 16.50241,-6.508759 17.87713,-20.815642 1.45979,-15.192388 7.72934,-25.877646 21.00581,-35.8004613 6.64225,-4.9644065 13.45353,-6.2599982 37.24152,-7.0838131 25.68796,-0.8896143 30.47554,-0.2421443 40.69983,5.5042154 13.97155,7.852447 24.05095,24.612833 24.11943,40.106651 0.0489,11.095242 0.47378,11.549695 16.64116,17.806155 l 16.59087,6.420321 11.26739,-9.054724 c 14.18913,-11.402701 35.13336,-14.289506 49.55726,-6.830616 15.87136,8.207394 43.91213,38.945048 47.42323,51.984249 3.82171,14.19278 0.35856,28.56773 -10.22545,42.44408 -9.05958,11.87774 -9.06542,11.97728 -1.67915,28.67518 5.58467,12.6251 6.56497,13.34446 20.74907,15.22604 19.1592,2.54156 36.64358,17.38827 41.46333,35.20821 4.71185,17.42102 1.93285,52.04262 -5.15091,64.1717 -8.27489,14.16856 -22.9782,23.17697 -37.82894,23.17697 -12.23181,0 -12.40847,0.15352 -19.74974,17.16783 l -7.40754,17.16784 8.25379,9.2376 c 11.10046,12.42355 15.21376,28.42212 11.17103,43.44913 -2.26134,8.40547 -9.12574,17.60187 -24.409,32.70138 -17.30687,17.09876 -23.55224,21.39402 -33.56758,23.08611 -15.02357,2.5382 -29.76631,-1.90579 -39.02804,-11.76447 -8.33271,-8.86976 -9.17398,-8.89463 -28.59365,-0.84564 -14.95101,6.19687 -15.52746,6.85868 -15.52746,17.82691 0,14.77796 -6.24233,26.49759 -19.49961,36.60937 -9.50064,7.24651 -13.60447,8.25067 -37.57432,9.19411 -23.605,0.92906 -28.53676,0.22033 -40.16915,-5.77259 z M 280.53137,365.5295 c 29.95737,-4.88116 63.00157,-31.6129 77.61651,-62.78929 6.9345,-14.79255 7.83742,-20.29558 7.8208,-47.66433 -0.0177,-27.66839 -0.86532,-32.66715 -8.02235,-47.26084 -10.85956,-22.14336 -32.13654,-42.92823 -55.31425,-54.0349 -17.20878,-8.24639 -21.84727,-9.15978 -45.67482,-8.99408 -33.48804,0.23288 -52.84707,7.3557 -75.94524,27.94276 -70.41227,62.75744 -35.2158,180.50428 58.1019,194.37505 14.8704,2.21034 19.19951,2.04576 41.41745,-1.57437 z"
     id="path948"
     inkscape:connector-curvature="0" />
  <path
     style="fill:#ffffff;stroke-width:0.13022974"
     d=""
     id="path950"
     inkscape:connector-curvature="0" />
  <path
     style="fill:#ffffff;stroke-width:0.13022974"
     d="m 365.07959,233.04909 c -0.69293,-3.48869 -2.25738,-9.14389 -3.6722,-13.27435 -7.73644,-22.58581 -22.95309,-42.44647 -42.92132,-56.02059 -13.22699,-8.99152 -28.2296,-15.02062 -43.92803,-17.65338 -2.19123,-0.36748 -5.03406,-0.75849 -7.61844,-1.04786 -1.49799,-0.16773 5.15675,-0.056 7.42309,0.12465 9.60335,0.76539 14.9358,2.35663 26.88141,8.0216 13.079,6.20245 24.21643,14.12268 34.8512,24.78396 9.24163,9.26467 16.26178,18.86153 21.58552,29.50839 4.64509,9.28962 6.38519,14.53595 7.31479,22.0538 0.26726,2.16141 0.47232,4.70841 0.37907,4.70841 -0.0307,0 -0.16349,-0.54208 -0.29509,-1.20463 z"
     id="path952"
     inkscape:connector-curvature="0" />
  <path
     style="fill:#ffffff;stroke-width:0.13022974"
     d="m 251.89806,368.43531 c -5.78277,-0.34044 -13.281,-1.32228 -18.88212,-2.47248 -17.41765,-3.57676 -33.0628,-10.80491 -46.52704,-21.49577 -5.84932,-4.64448 -11.8694,-10.57119 -16.64089,-16.38281 -13.6694,-16.64917 -22.48451,-37.37172 -25.12302,-59.05919 -0.63926,-5.25445 -0.7727,-7.61445 -0.77682,-13.73924 -0.004,-5.59732 0.0599,-7.01982 0.51889,-11.59044 2.22042,-22.11174 11.1641,-42.85288 25.88184,-60.02221 1.30647,-1.52409 1.43996,-1.64157 1.86524,-1.64157 h 0.45806 l -0.93053,1.07439 c -15.47564,17.8683 -24.90372,40.26329 -26.8234,63.7149 -2.21911,27.10973 5.51295,54.06693 21.71316,75.7011 3.50102,4.67535 6.20421,7.77865 10.63726,12.2117 4.43991,4.43991 7.54692,7.14583 12.20318,10.62786 29.09618,21.7586 67.15174,27.89384 101.69046,16.39431 12.60573,-4.19703 24.44419,-10.68145 34.85091,-19.08935 5.60572,-4.52902 12.11976,-11.04242 16.64461,-16.64297 10.40035,-12.87287 17.91604,-28.07416 21.67756,-43.84528 0.79686,-3.34104 0.80427,-3.36361 0.72667,-2.2139 -0.23128,3.42684 -1.38514,8.76096 -2.73256,12.63228 -1.53999,4.42459 -4.63015,11.25738 -7.15598,15.82292 -8.50497,15.37307 -21.28112,29.51982 -36.31294,40.20856 -11.15316,7.93072 -23.19504,13.55863 -34.34416,16.05114 -2.82684,0.63198 -10.72649,1.92343 -16.66523,2.72448 -6.56887,0.88603 -12.21899,1.25139 -15.95315,1.03157 z"
     id="path954"
     inkscape:connector-curvature="0" />
  <path
     style="fill:#ffffff;stroke-width:0.13022974"
     d="m 172.11238,181.66895 c 0.4976,-0.69882 5.42889,-5.6709 7.50032,-7.56237 18.12012,-16.54587 33.70248,-24.48156 54.24854,-27.62735 1.39672,-0.21385 2.71529,-0.38134 2.93017,-0.3722 0.34791,0.0148 0.35504,0.0226 0.0651,0.0711 -1.40357,0.23507 -5.91846,1.1937 -7.61844,1.61759 -18.08314,4.50909 -34.54403,13.33591 -48.31524,25.90809 -1.77522,1.62066 -5.83824,5.67936 -7.45662,7.44868 -0.66182,0.72356 -0.87551,0.87906 -1.20806,0.87906 h -0.40402 z"
     id="path956"
     inkscape:connector-curvature="0" />
  <path
     style="fill:#ffffff;stroke-width:0.13022974"
     d="m 165.61529,322.4664 c -6.39788,-8.80587 -12.0125,-19.77598 -15.61371,-30.50679 -2.93731,-8.75253 -4.78088,-17.59061 -5.68046,-27.23213 -0.2742,-2.93886 -0.39585,-12.56933 -0.20069,-15.88803 1.28818,-21.90565 8.62375,-41.96432 21.74117,-59.44987 2.57519,-3.43274 5.774,-7.22776 6.09225,-7.22776 0.10663,0 0.15888,-0.0566 0.11611,-0.12581 -0.11234,-0.18177 1.59668,-2.03243 4.63731,-5.02163 10.60499,-10.42564 22.40343,-18.8413 32.96366,-23.51252 0.60728,-0.26862 1.00999,-0.52417 1.01127,-0.64173 0.002,-0.14081 0.0301,-0.15143 0.10211,-0.038 0.0625,0.0983 0.53137,0.17158 1.24946,0.19535 l 1.14949,0.038 -1.2189,0.50912 c -4.62004,1.92975 -10.80704,5.20073 -15.53459,8.21293 -7.60029,4.84258 -13.06834,9.28867 -20.05886,16.30994 -2.08846,2.09764 -3.88186,3.81479 -3.98532,3.81589 -0.13746,0.001 -0.14575,0.0289 -0.0308,0.102 0.10804,0.0687 -0.17373,0.48635 -0.8991,1.33286 -14.91696,17.40788 -24.12802,38.85203 -26.40111,61.46411 -0.44189,4.39578 -0.57073,7.77194 -0.49135,12.87586 0.0767,4.93016 0.17601,6.63347 0.61999,10.63061 2.20946,19.89176 9.73215,38.7855 21.84263,54.85927 l 0.31889,0.42325 h -0.45608 c -0.423,0 -0.51534,-0.0816 -1.27339,-1.12492 z"
     id="path958"
     inkscape:connector-curvature="0" />
  <path
     style="fill:#ffffff;stroke-width:0.13022974"
     d="m 318.67363,56.877453 c -0.85003,-1.694356 -1.20278,-4.190893 -1.20481,-8.526684 -0.003,-6.76986 -1.5136,-13.020631 -4.75175,-19.664691 -4.34842,-8.9221 -11.11237,-16.330143 -19.14549,-20.9685972 -6.04746,-3.4919008 -10.26164,-4.9075814 -16.73452,-5.621673 -1.86625,-0.2058854 -3.30465,-0.236848 -10.9393,-0.2354767 -7.9989,0.00144 -11.68171,0.086857 -19.72981,0.4576202 -12.23243,0.5635286 -19.15339,1.4574066 -23.79593,3.0733696 -2.7848,0.9693258 -4.65741,1.9972764 -7.4592,4.0946623 -10.86619,8.1342758 -17.08348,17.2276848 -19.53671,28.5744118 -0.51378,2.376339 -0.82431,4.466342 -1.17097,7.881124 -0.40817,4.020703 -0.78632,6.709665 -1.10799,7.878899 l -0.2508,0.911608 0.0465,-5.599879 c 0.0515,-6.203579 0.15759,-7.508326 0.92094,-11.329987 2.77655,-13.900597 11.87388,-25.914875 24.6135,-32.505505 5.36563,-2.7758151 11.52238,-4.56137784 17.45249,-5.06151604 2.10709,-0.17770881 38.13391,-0.17770881 40.24099,0 20.82971,1.75675104 38.2246,17.46429904 42.17944,38.08794004 0.67601,3.52523 0.76191,4.758175 0.82571,11.850906 0.0329,3.652944 0.0397,6.845315 0.0152,7.094157 l -0.0445,0.45244 z"
     id="path960"
     inkscape:connector-curvature="0" />
  <path
     style="fill:#ffffff;stroke-width:0.13022974"
     d="m 342.2775,68.658917 c -15.11984,-5.864703 -17.22279,-6.732429 -19.59958,-8.087249 -1.16534,-0.664274 -3.21313,-2.214111 -3.08922,-2.338027 0.0685,-0.06846 5.52223,1.800947 8.6891,2.9784 6.64879,2.472038 13.149,5.281125 19.58445,8.463483 3.31492,1.639243 3.36697,1.671165 3.13788,1.924304 -0.12812,0.141574 -0.29712,0.253818 -0.37555,0.249429 -0.0784,-0.0044 -3.83462,-1.440041 -8.34708,-3.19034 z"
     id="path962"
     inkscape:connector-curvature="0" />
  <path
     style="fill:#ffffff;stroke-width:0.13022974"
     d="m 443.92474,157.24086 c -0.005,-0.18358 1.58234,-2.41952 4.08019,-5.74814 1.28999,-1.71903 2.88466,-3.94596 3.5437,-4.94873 4.93034,-7.50179 7.6991,-14.75137 8.67917,-22.72509 0.25183,-2.04887 0.20598,-7.59122 -0.0803,-9.70211 -0.91935,-6.77972 -2.29558,-10.20096 -6.86259,-17.060099 -4.88927,-7.343119 -11.04533,-14.650873 -19.31832,-22.932426 -6.5941,-6.600931 -11.161,-10.585582 -16.44727,-14.350358 -7.78964,-5.547632 -14.8604,-7.842942 -24.15554,-7.841375 -7.23422,0.0012 -14.00548,1.44933 -20.80791,4.450008 -4.61982,2.03789 -7.56748,3.977834 -14.52083,9.556601 -2.91205,2.336381 -5.31895,4.223656 -5.34866,4.193944 -0.11261,-0.11261 8.66412,-8.686091 9.91298,-9.683425 2.90854,-2.322736 5.50671,-4.003225 8.56642,-5.540752 11.25424,-5.655328 24.03286,-6.571388 36.04596,-2.584024 5.6954,1.890406 10.61035,4.632488 15.41747,8.60149 1.69763,1.401652 27.04511,26.74913 28.44676,28.446762 3.969,4.807116 6.71109,9.722074 8.60149,15.417474 3.21916,9.69864 3.24232,20.04657 0.0663,29.64202 -1.85893,5.61633 -4.53896,10.46896 -8.37909,15.17176 -1.1101,1.35948 -7.43442,7.85079 -7.44001,7.63647 z"
     id="path964"
     inkscape:connector-curvature="0" />
  <path
     style="fill:#ffffff;stroke-width:0.13022974"
     d="m 451.83714,188.36242 c -1.44441,-1.95339 -2.76268,-4.57607 -5.89869,-11.73536 -3.13207,-7.1503 -4.24554,-10.56206 -4.22389,-12.94236 l 0.007,-0.73176 0.66346,1.3023 c 1.76317,3.46086 4.62117,9.8627 6.51158,14.58573 1.8422,4.60258 3.9626,10.44548 3.83646,10.57161 -0.0376,0.0376 -0.44065,-0.43493 -0.89558,-1.05016 z"
     id="path966"
     inkscape:connector-curvature="0" />
  <path
     style="fill:#ffffff;stroke-width:0.13022974"
     d="m 455.04635,318.84301 c 0.66404,-0.54285 2.05206,-1.13677 3.26452,-1.39686 0.94979,-0.20374 2.05441,-0.27467 5.79655,-0.37221 4.89502,-0.12759 6.31444,-0.23438 8.72539,-0.65645 12.10271,-2.11874 23.43254,-10.0492 30.49658,-21.34648 0.47027,-0.75208 1.12635,-1.90835 1.45797,-2.56949 6.28108,-12.52253 8.80556,-43.10094 5.00769,-60.65705 -1.45509,-6.72635 -4.39992,-12.7448 -9.1759,-18.75308 -1.56636,-1.97051 -5.73763,-6.10848 -7.86119,-7.79841 -6.70412,-5.33519 -14.38914,-8.95505 -22.26928,-10.48946 -0.75208,-0.14645 -2.82927,-0.47491 -4.61599,-0.72992 -1.78672,-0.25502 -4.04295,-0.6221 -5.01385,-0.81574 l -1.76526,-0.35208 3.25574,-0.0394 c 3.45979,-0.0419 6.60481,0.11318 8.9721,0.44232 11.37535,1.58158 21.73657,7.26472 29.30011,16.07114 6.11331,7.11788 9.94054,15.92058 11.04112,25.3948 0.25424,2.18862 0.25424,40.26627 0,42.45489 -1.72179,14.82183 -10.0795,27.71328 -22.94181,35.38687 -5.17392,3.08673 -11.43315,5.26695 -17.46022,6.08173 -2.64421,0.35747 -5.15185,0.46287 -10.92986,0.45941 l -5.665,-0.003 0.38059,-0.31113 z"
     id="path968"
     inkscape:connector-curvature="0" />
  <path
     style="fill:#ffffff;stroke-width:0.13022974"
     d="m 389.09509,462.01883 c -6.27006,-0.45819 -11.88738,-1.98012 -17.5159,-4.74568 -3.48918,-1.71441 -6.1008,-3.39396 -9.18119,-5.90447 -1.19257,-0.97195 -10.34551,-9.9055 -10.24832,-10.00269 0.1248,-0.1248 1.84819,0.43199 2.68562,0.86767 1.46426,0.76179 2.83056,1.92055 5.4077,4.58625 2.76111,2.85601 3.94666,3.94028 5.94854,5.44038 5.93854,4.45005 13.09982,7.16005 21.15646,8.00611 2.50755,0.26334 7.22701,0.26355 9.76874,0 12.25434,-1.26847 18.29573,-5.09142 36.63189,-23.18031 13.79304,-13.60706 20.69856,-22.31381 23.7301,-29.91985 1.0206,-2.56067 1.76987,-5.6502 2.28198,-9.40954 0.32004,-2.34936 0.32247,-8.14422 0.004,-10.54861 -1.0656,-8.05582 -3.93595,-15.34018 -8.69807,-22.07394 -1.44591,-2.04456 -2.62493,-3.44656 -7.36743,-8.7608 -2.49216,-2.79263 -4.51763,-5.12527 -4.50102,-5.18366 0.0166,-0.0584 2.05353,-4.79602 4.52649,-10.52808 5.76421,-13.36031 6.73714,-15.51146 8.04477,-17.78655 0.63413,-1.10329 1.66257,-2.57902 1.74199,-2.49961 0.0707,0.0707 -1.74697,5.30437 -2.9487,8.49017 -2.58936,6.86447 -4.8502,12.08083 -8.17071,18.85195 l -1.7728,3.61507 4.94513,4.9801 c 2.71982,2.73905 5.41485,5.56885 5.98895,6.28845 5.97311,7.48684 9.30404,15.55024 10.3534,25.06316 0.21129,1.91535 0.21137,7.15464 1.4e-4,9.1812 -0.99911,9.58606 -4.61524,18.22733 -10.74557,25.67805 -1.48771,1.80816 -26.7659,27.09531 -28.59758,28.60772 -7.4084,6.11711 -16.26077,9.83263 -25.63829,10.7609 -1.99929,0.19791 -5.97534,0.26219 -7.83075,0.12661 z"
     id="path970"
     inkscape:connector-curvature="0" />
  <path
     style="fill:#ffffff;stroke-width:0.13022974"
     d="m 320.59425,453.37183 c 0,-0.10985 1.62577,-1.20947 2.58914,-1.75121 2.15917,-1.21418 6.96644,-3.3124 14.8178,-6.46748 5.79098,-2.32712 9.03382,-3.40638 10.91803,-3.63367 l 0.65115,-0.0786 -1.17207,0.61175 c -5.93877,3.09968 -15.50496,7.13569 -24.05854,10.15039 -3.32165,1.17071 -3.74551,1.30298 -3.74551,1.16877 z"
     id="path976"
     inkscape:connector-curvature="0" />
  <path
     style="fill:#ffffff;stroke-width:0.13022974"
     d="m 236.53095,511.8218 c -0.21488,-0.0259 -1.03532,-0.11102 -1.82321,-0.1892 -9.60156,-0.95271 -19.34163,-5.41676 -26.69736,-12.23587 -8.29803,-7.69266 -13.43546,-17.78057 -14.85364,-29.16672 -0.30831,-2.47535 -0.41324,-13.93148 -0.11937,-13.03369 0.28496,0.87061 0.43109,2.3969 0.5178,5.40842 0.0432,1.50039 0.16546,3.43431 0.27169,4.29758 1.62843,13.23401 10.13081,27.19558 21.45163,35.22524 4.23952,3.00702 11.11399,6.24926 15.88656,7.49265 2.92666,0.76248 5.31272,1.12536 9.07745,1.38053 4.28713,0.29059 18.33177,0.0261 28.25985,-0.53218 15.78887,-0.88785 20.58754,-2.25754 28.44515,-8.11909 3.04585,-2.27212 5.01844,-3.96981 7.50259,-6.45704 5.61043,-5.61739 9.30336,-11.63327 11.23643,-18.30444 1.23642,-4.26697 1.60942,-7.18052 1.78393,-13.93459 0.0923,-3.57333 0.16315,-4.65399 0.36698,-5.59987 0.25488,-1.18273 0.72442,-2.3855 1.11847,-2.86506 0.19899,-0.24217 0.21038,0.21498 0.16228,6.51149 -0.0553,7.24402 -0.13593,8.42455 -0.81795,11.98113 -2.52037,13.14318 -10.64066,24.72629 -22.14292,31.58558 -5.65679,3.37339 -11.29132,5.3273 -18.27842,6.33849 -1.33869,0.19374 -3.59159,0.21923 -21.22744,0.24022 -10.8514,0.0129 -19.90562,0.002 -20.1205,-0.0236 z"
     id="path978"
     inkscape:connector-curvature="0" />
  <path
     style="fill:#ffffff;stroke-width:0.13022974"
     d="m 187.239,452.06637 c -5.3202,-1.87873 -11.27868,-4.26643 -16.43476,-6.58579 -3.21287,-1.44524 -9.61119,-4.56215 -9.61119,-4.68204 0,-0.0477 0.1449,-0.16422 0.32199,-0.259 0.29755,-0.15924 0.82908,0.0334 6.99985,2.53647 14.6769,5.95352 17.15647,7.02773 19.64848,8.51219 1.49526,0.89069 2.25127,1.44836 1.94068,1.43152 -0.10744,-0.006 -1.39671,-0.43484 -2.86505,-0.95335 z"
     id="path980"
     inkscape:connector-curvature="0" />
  <path
     style="fill:#ffffff;stroke-width:0.13022974"
     d="m 117.50097,462.06962 c -10.70047,-0.64407 -19.975161,-4.25893 -28.064506,-10.9383 -1.782238,-1.47159 -27.093804,-26.78316 -28.565398,-28.5654 -4.837208,-5.85831 -8.093922,-12.41637 -9.768772,-19.67142 -3.421543,-14.8213 0.484353,-30.29234 10.508564,-41.62384 1.374506,-1.55376 9.072523,-9.30112 9.072523,-9.13068 0,0.0505 -1.592158,2.07194 -3.538129,4.4921 -5.386772,6.6994 -6.655893,8.41062 -8.564245,11.54761 -3.367414,5.53541 -5.535441,11.24328 -6.399872,16.84926 -0.351789,2.2814 -0.484459,7.11915 -0.256744,9.36208 0.952073,9.3777 5.055185,18.72367 12.670069,28.85961 5.659515,7.5332 14.307539,16.54059 22.133227,23.05296 9.281707,7.72404 18.341623,12.39424 26.803963,13.8169 3.98334,0.66967 8.47036,0.67035 12.43426,0.002 5.89963,-0.99489 12.19726,-3.55456 18.6151,-7.56611 2.07394,-1.29634 3.17301,-2.06219 8.70802,-6.06788 2.56472,-1.8561 4.68907,-3.34879 4.72077,-3.31709 0.12857,0.12857 -7.2851,7.29854 -8.79789,8.50869 -5.79816,4.63819 -12.06418,7.67681 -19.14377,9.2835 -3.95683,0.898 -8.85802,1.32938 -12.56717,1.10613 z"
     id="path982"
     inkscape:connector-curvature="0" />
  <path
     style="fill:#ffffff;stroke-width:0.13022974"
     d="m 69.607546,347.71638 c -3.319881,-6.76986 -5.580923,-11.98671 -8.170122,-18.85076 -1.226615,-3.25178 -3.014617,-8.40799 -2.966094,-8.55356 0.0649,-0.1947 1.172971,1.40055 2.100169,3.02352 1.124052,1.96755 2.378265,4.69016 7.646838,16.59957 l 4.378513,9.89746 -0.585255,0.74882 c -0.321892,0.41186 -0.595738,0.74882 -0.608546,0.74882 -0.01281,0 -0.820785,-1.62624 -1.795503,-3.61387 z"
     id="path984"
     inkscape:connector-curvature="0" />
  <path
     style="fill:#ffffff;stroke-width:0.13022974"
     d="M 43.83047,319.02265 C 37.71321,318.60834 31.289706,316.82178 25.819237,314.01322 12.688032,307.2716 3.4353999,294.8571 0.83057455,280.48528 0.15381506,276.75134 0.16397821,277.1266 0.16397821,255.87186 c 0,-21.27099 -0.0200402,-20.54333 0.67069803,-24.35296 C 4.3145109,212.32655 19.538407,197.09534 38.711981,193.62338 c 3.110596,-0.56326 4.539053,-0.6681 9.832345,-0.72161 3.278683,-0.0332 4.978787,-0.009 4.688271,0.0679 -0.856101,0.22529 -3.5785,0.64926 -6.706832,1.04448 -5.071072,0.64065 -7.823831,1.24107 -11.655562,2.54226 -11.934307,4.05267 -22.105456,12.0626 -27.7217173,21.83127 -0.9567039,1.66405 -1.1993858,2.2027 -1.8441406,4.09319 -3.4693459,10.17248 -4.50600158,34.65891 -2.2627002,53.44633 1.1846158,9.92103 2.7880005,15.37567 6.0252367,20.49756 5.9942834,9.48405 16.4019704,16.87893 27.4165164,19.48003 3.485354,0.82307 5.368245,1.02724 10.302826,1.11718 4.239253,0.0773 6.04439,0.20793 7.357981,0.5326 1.003576,0.24805 2.233613,0.79386 2.857798,1.2681 l 0.448547,0.3408 -6.048426,-0.0188 c -3.326634,-0.0104 -6.733879,-0.0653 -7.571654,-0.12201 z"
     id="path986"
     inkscape:connector-curvature="0" />
  <path
     style="fill:#ffffff;stroke-width:0.13022974"
     d="m 58.962705,190.08663 c 0,-0.041 0.433271,-1.29872 0.962824,-2.79502 2.94922,-8.33326 5.73647,-14.96169 9.620877,-22.87965 l 1.839763,-3.75017 -4.62967,-4.64965 c -4.980979,-5.00247 -5.807809,-5.90422 -7.582512,-8.26953 -8.21841,-10.95345 -11.18441,-25.1494 -8.071693,-38.63294 1.682792,-7.28945 4.926115,-13.806456 9.822292,-19.736534 1.475168,-1.78667 26.784443,-27.077007 28.55414,-28.532772 7.482286,-6.154983 15.860684,-9.669847 25.612994,-10.745033 1.94545,-0.214486 7.33208,-0.215668 9.24631,-0.002 8.78312,0.98024 16.55857,3.988299 23.33491,9.027491 2.3209,1.725927 3.31387,2.635542 8.33742,7.637495 l 4.64965,4.62967 3.75016,-1.839763 c 8.04992,-3.949141 14.99771,-6.859644 23.53054,-9.857188 1.35291,-0.475268 2.48304,-0.840912 2.51141,-0.812543 0.0881,0.08814 -1.79651,1.457103 -2.80496,2.037458 -2.12514,1.223007 -4.05264,2.030068 -17.46329,7.311983 l -10.21807,4.024487 -1.04681,-1.026524 c -2.84871,-2.793531 -7.57296,-7.209332 -8.74241,-8.171613 -8.82406,-7.260861 -20.34812,-11.381736 -31.82911,-11.381736 -6.63847,0 -12.65023,1.306095 -17.74343,3.854877 -4.539353,2.271622 -12.064205,8.662107 -22.832176,19.390241 -7.754162,7.725477 -13.284428,13.748687 -17.779705,19.364518 -3.323245,4.151641 -4.838274,6.633546 -5.708208,9.351136 -3.013431,9.41367 -2.682733,25.58124 0.686655,33.56998 0.782622,1.85558 2.821673,5.04916 5.465013,8.55934 2.376503,3.15585 3.786462,4.78543 8.722133,10.08072 3.136225,3.36474 3.319512,3.58858 3.199066,3.9069 -0.577432,1.52604 -7.76328,19.70703 -8.471915,21.43487 -1.253137,3.05549 -2.575066,5.76492 -3.424471,7.0188 -0.692923,1.02288 -1.497727,2.03456 -1.497727,1.88273 z"
     id="path988"
     inkscape:connector-curvature="0" />
</svg>
